<?xml version="1.0" encoding="UTF-8" standalone="no"?>
<svg width="618px" height="354px" viewBox="0 0 618 354" version="1.1" xmlns="http://www.w3.org/2000/svg" xmlns:xlink="http://www.w3.org/1999/xlink">
    <!-- Generator: Sketch 50.2 (55047) - http://www.bohemiancoding.com/sketch -->
    <title>logo 2</title>
    <desc>Created with Sketch.</desc>
    <defs>
        <polygon id="path-1" points="0 0 299 0 299 354 0 354"></polygon>
    </defs>
    <g id="Page-1" stroke="none" stroke-width="1" fill="none" fill-rule="evenodd">
        <g id="logo">
            <path d="M0.52,185.2 L0.52,172.24 C0.52,169.36 1.96,167.92 4.84,166.48 L122.92,113.2 C125.8,112.048 127.24,113.2 127.24,116.08 L127.24,131.92 C127.24,136.24 125.8,137.68 122.92,139.12 L33.64,178 L33.64,179.44 L122.92,218.32 C125.8,219.472 127.24,221.2 127.24,225.52 L127.24,241.36 C127.24,244.24 125.8,245.392 122.92,244.24 L4.84,190.96 C1.96,189.808 0.52,188.08 0.52,185.2 Z" id="&lt;-copy" fill="#0071BC" fill-rule="nonzero"></path>
            <path d="M617.24,172.24 L617.24,185.2 C617.24,188.08 615.8,189.808 612.92,190.96 L494.84,244.24 C491.96,245.392 490.52,244.24 490.52,241.36 L490.52,225.52 C490.52,221.2 491.96,219.472 494.84,218.32 L584.12,179.44 L584.12,178 L494.84,139.12 C491.96,137.68 490.52,136.24 490.52,131.92 L490.52,116.08 C490.52,113.2 491.96,112.048 494.84,113.2 L612.92,166.48 C615.8,167.92 617.24,169.36 617.24,172.24 Z" id="&gt;-copy" fill="#0071BC" fill-rule="nonzero"></path>
            <g id="Group-3" transform="translate(165.000000, 0.000000)">
                <g id="Fill-1-Clipped">
                    <mask id="mask-2" fill="white">
                        <use xlink:href="#path-1"></use>
                    </mask>
                    <g id="path-1"></g>
                    <path d="M7.72442656,0.321394591 C7.72442656,0.321394591 121.338189,4.49759687 122.625272,4.49759687 C123.912837,4.49759687 122.625272,114.680529 122.625272,114.680529 L282.907123,258.914904 L287.41336,269.194231 L290.631549,273.049039 L292.562656,279.794952 L299,284.613462 L293.850221,291.359375 L287.734889,298.747596 L290.31002,309.027404 L284.838229,319.306731 L287.091348,332.798558 L292.562656,334.404567 L292.241127,341.79327 L284.194688,343.399279 L211.778189,354 L203.410221,330.228847 L175.730704,308.70601 L166.719195,299.711298 L157.063662,300.032692 C157.063662,300.032692 144.189457,292.323077 143.867445,291.359375 C143.545915,290.395673 135.499477,285.255769 135.499477,285.255769 L108.463984,284.613462 L102.027123,279.473557 L103.958229,271.443029 L102.992676,265.018029 L103.314205,258.59351 L97.1993561,254.738702 L96.555332,247.992789 L83.0375855,238.677164 L80.1409256,231.609856 L68.5542857,216.51202 L65.6576258,202.056491 L68.5542857,201.092789 L70.8074044,196.916587 L66.3016498,189.528366 L59.8643059,189.849279 C59.8643059,189.849279 52.4618913,178.60625 52.4618913,177.642548 C52.4618913,176.678846 49.8872434,165.435818 49.8872434,165.435818 L52.4618913,160.938221 L54.71501,163.829327 L57.61167,166.39952 L60.8298592,165.756731 L57.9331992,159.653606 L53.7494567,154.192308 L56.9676459,150.016587 L51.81835,148.410096 L51.174326,155.477404 L36.3694969,149.373798 L37.6565795,140.379568 L25.4263984,125.602644 L15.4488531,115.323318 L15.7708652,92.8367791 L16.4144064,86.0908657 L1.93110664,66.4954326 L0,59.1072118 L9.33400395,35.6569711 L10.2995573,11.8858177 L6.11533195,9.31610648 L3.86221328,0 L7.72442656,0.321394591 Z" id="Fill-1" fill="#0071BC" fill-rule="nonzero" mask="url(#mask-2)"></path>
                </g>
            </g>
        </g>
    </g>
</svg>