<?xml version="1.0" encoding="UTF-8" standalone="no"?>
<svg
   xmlns:dc="http://purl.org/dc/elements/1.1/"
   xmlns:cc="http://creativecommons.org/ns#"
   xmlns:rdf="http://www.w3.org/1999/02/22-rdf-syntax-ns#"
   xmlns:svg="http://www.w3.org/2000/svg"
   xmlns="http://www.w3.org/2000/svg"
   xmlns:xlink="http://www.w3.org/1999/xlink"
   xmlns:sodipodi="http://sodipodi.sourceforge.net/DTD/sodipodi-0.dtd"
   xmlns:inkscape="http://www.inkscape.org/namespaces/inkscape"
   version="1.1"
   width="9164.4"
   height="10536.0"
   viewBox="-35597 -55123 91644 105360"
   id="svg3501"
   sodipodi:version="0.32"
   inkscape:version="0.46"
   sodipodi:docname="Map_of_California_outline.svg"
   inkscape:output_extension="org.inkscape.output.svg.inkscape">
  <metadata
     id="metadata3641">
    <rdf:RDF>
      <cc:Work
         rdf:about="">
        <dc:format>image/svg+xml</dc:format>
        <dc:type
           rdf:resource="http://purl.org/dc/dcmitype/StillImage" />
      </cc:Work>
    </rdf:RDF>
  </metadata>
  <defs
     id="defs3639">
    <inkscape:perspective
       sodipodi:type="inkscape:persp3d"
       inkscape:vp_x="0 : 5268 : 1"
       inkscape:vp_y="0 : 1000 : 0"
       inkscape:vp_z="9164.4004 : 5268 : 1"
       inkscape:persp3d-origin="4582.2002 : 3512 : 1"
       id="perspective3643" />
  </defs>
  <sodipodi:namedview
     inkscape:window-height="856"
     inkscape:window-width="1379"
     inkscape:pageshadow="2"
     inkscape:pageopacity="0.0"
     guidetolerance="10.0"
     gridtolerance="10.0"
     objecttolerance="10.0"
     borderopacity="1.0"
     bordercolor="#666666"
     pagecolor="#ffffff"
     id="base"
     showgrid="false"
     inkscape:zoom="0.060839028"
     inkscape:cx="4582.2002"
     inkscape:cy="2896.912"
     inkscape:window-x="61"
     inkscape:window-y="0"
     inkscape:current-layer="svg3501" />
  <clipPath
     id="state_clip_path">
    <g
       id="state_outline">
      <path
         id="1729"
         d="M -33131,-55123 l 240,16 451,40 87,6 92,4 5,0 241,10 558,28 73,0 101,6 216,6 20,1 621,28 536,26 258,10 111,3 16,1 629,29 110,5 239,11 261,-34 872,37 492,20 413,17 479,16 44,3 94,5 13,-1 6,0 488,-9 118,-2 269,-5 136,-4 23,-1 243,-12 352,-20 537,64 169,20 13,2 146,2 164,3 935,18 1414,29 148,3 279,4 333,7 317,6 30,1 139,-1 482,-4 1424,11 31,2 322,10 169,5 154,4 188,5 304,8 164,4 14,0 139,7 144,6 14,1 190,9 149,5 76,3 559,27 558,26 369,17 379,17 10,1 26,1 554,17 1075,33 118,6 47,3 85,7 222,5 91,3 1122,33 216,3 887,11 64,0 23,1 141,3 23,0 146,3 417,8 143,3 81,1 891,9 12,0 866,54 162,1 251,0 573,1 2423,8 490,1 353,2 489,1 1120,-1 135,0 57,-1 673,-5 794,-1 164,0 338,-3 69,0 215,1 5,501 3,222 -2,252 1,71 5,1069 10,1019 2,251 1,380 7,3200 2,967 -6,469 1,452 0,153 -2,492 3,1322 2,977 9,978 1,136 3,342 0,96 6,463 5,725 8,796 3,222 1,86 1,392 3,222 1,116 7,735 2,222 0,55 -1,514 4,689 2,147 -4,539 -1,135 0,188 -1,161 0,322 2,502 1,344 0,44 -2,242 1,168 -2,109 1,32 -2,129 -10,715 -2,133 -3,174 -1,149 -1,118 -4,1342 -4,136 0,22 -4,139 1,32 0,161 -4,140 0,16 -4,135 0,16 1,150 0,166 -1,161 0,142 -1,503 -1,167 0,171 -1,121 -1,503 1,151 2,327 4,488 -4,147 0,14 -1,166 -1,167 -1,146 -2,156 -1,186 -4,323 -2,171 3,150 -1,11 -3,161 -1,145 1,41 7,428 5,276 -1,493 2,117 10,599 8,486 13,746 436,378 273,237 37,33 110,97 482,425 183,162 33,29 282,245 23,13 308,270 78,69 127,113 219,197 221,190 538,468 68,59 97,85 180,157 217,189 22,19 837,730 45,39 1042,914 807,705 184,161 385,334 181,157 107,94 1078,945 233,203 342,298 73,64 308,267 466,406 252,222 361,316 108,95 507,443 981,858 561,488 400,348 295,257 384,336 293,253 332,291 623,544 929,812 677,591 258,227 221,196 300,264 638,561 1051,923 16,-1 754,658 98,85 506,444 387,334 506,444 62,55 67,60 552,478 57,50 1419,1242 512,449 82,70 83,70 201,179 124,105 691,607 0,12 1463,1276 217,189 26,21 129,113 372,323 300,260 97,85 326,288 27,24 488,426 771,671 274,238 168,145 24,22 566,498 190,164 141,122 317,277 130,114 1259,1098 743,646 112,100 488,426 542,479 27,24 388,342 232,204 388,342 126,108 529,465 382,334 320,279 214,187 1944,1704 351,307 29,-1 186,164 350,310 526,454 134,120 896,779 114,100 1844,1614 103,90 31,30 479,414 448,395 175,155 170,150 278,240 159,140 438,384 304,265 139,120 1024,900 525,465 201,175 99,96 199,170 91,78 167,147 173,156 18,15 153,136 253,222 13,20 28,70 6,69 5,22 -21,106 -17,98 11,52 5,22 13,55 24,73 12,85 -9,79 -7,90 10,65 12,62 7,37 -4,67 -21,62 -10,76 -4,70 7,72 29,74 60,70 90,62 9,5 113,68 106,74 5,8 61,70 55,88 24,84 5,13 33,100 9,27 33,98 67,126 61,107 89,104 75,75 87,58 59,32 56,60 31,50 40,40 63,24 64,20 69,30 18,28 18,30 12,24 63,47 8,2 37,7 54,36 38,78 22,63 3,16 24,79 48,77 38,83 35,58 13,29 -14,29 -18,19 -18,32 7,19 13,30 19,17 26,25 55,46 20,48 17,85 20,69 16,60 30,38 38,27 54,36 29,38 9,39 -18,27 -29,28 -29,23 -28,27 -6,12 -8,15 8,29 30,38 55,41 113,75 41,31 36,29 25,35 30,50 38,65 27,48 40,48 26,60 46,75 41,103 22,84 10,90 -13,108 -2,14 -14,131 4,71 0,28 2,77 -18,81 -2,56 20,55 47,56 56,24 54,-5 9,-1 66,-24 9,-2 101,-32 56,-5 42,12 28,22 25,49 27,34 39,31 7,4 41,19 76,33 64,35 59,37 30,41 32,55 19,57 27,43 36,25 46,4 51,1 62,4 49,27 49,43 39,30 74,70 16,14 66,55 48,77 29,35 16,15 38,29 8,4 41,9 10,3 67,19 84,13 8,3 82,25 56,13 41,25 33,42 39,54 46,62 17,22 31,38 67,65 51,43 67,69 36,62 36,50 6,33 9,42 5,37 6,39 26,60 0,71 11,50 15,31 17,42 9,43 -9,23 -29,18 -39,0 -46,-5 -36,6 -38,7 -41,3 -27,11 -8,3 -14,11 0,36 -10,26 -14,21 -16,14 -23,10 -24,22 -23,37 -13,27 -23,32 -78,90 -92,102 -69,87 -45,43 -15,9 -39,39 -29,26 -17,25 -3,29 -7,41 5,36 -6,28 -9,22 -22,21 -7,3 -32,12 -41,36 -28,20 -13,14 -25,27 -63,43 -44,13 -67,16 -41,12 -9,1 -47,1 -41,-3 -21,5 -30,20 -33,19 -48,57 -52,88 -71,95 -66,76 -56,48 -72,29 -72,21 -62,-2 -45,19 -14,16 -4,7 -28,41 -31,46 -48,53 -54,29 -75,27 -44,29 -49,20 -48,0 -35,-3 -10,-1 -21,-2 -21,9 -54,23 -42,44 -34,39 -35,63 -36,54 -22,39 -22,56 -3,25 -7,46 -3,20 -12,93 -3,89 6,68 16,70 20,64 2,25 3,30 2,76 -15,72 -22,49 -61,59 -29,23 -27,5 -55,-3 -21,-3 -23,27 -24,25 6,23 20,22 31,25 38,21 13,14 -5,20 -25,16 -21,5 -36,21 -20,25 -23,30 -10,19 -4,8 -13,21 -26,18 -20,24 -6,7 -16,16 -12,17 -24,33 -50,76 -41,61 -19,19 -45,19 -29,11 -46,11 -14,4 -16,5 -35,13 -38,32 -28,49 -20,57 -29,83 -11,61 -1,17 5,24 23,23 17,11 27,14 62,33 57,45 45,55 37,60 -13,36 -13,25 -68,3 -29,-17 -23,0 -15,12 -3,28 31,46 41,45 62,55 69,57 28,28 11,55 -12,47 -20,38 -22,21 -8,5 -36,24 -40,13 -41,0 -26,-4 -31,-2 -14,11 -8,26 3,40 15,49 28,69 3,8 28,81 24,55 9,38 -4,28 -25,30 -15,21 -6,15 -4,50 19,42 32,69 31,86 52,110 18,37 19,39 45,95 11,26 19,63 17,88 -17,77 -21,52 -18,38 3,29 18,41 29,26 38,24 29,47 28,54 32,103 4,53 -25,66 -40,25 -17,9 -35,17 -16,8 -40,18 -52,26 -22,15 -12,8 -6,6 -14,11 -15,16 -22,50 -16,56 -6,44 13,40 23,23 37,3 46,5 31,20 7,7 3,20 -25,18 -30,13 -31,18 -33,22 -13,19 0,25 9,33 25,39 23,29 7,33 -2,31 -6,9 -19,28 -5,26 -13,42 3,33 10,26 20,25 18,28 12,25 -3,30 -24,45 -8,12 -49,72 -42,66 -18,20 -4,15 7,20 10,31 -5,29 -2,41 8,25 18,34 23,27 5,35 11,41 27,22 6,6 18,17 26,25 4,35 -17,28 -6,9 -26,28 -24,28 -33,39 -60,34 -42,44 -51,40 -8,22 -30,42 -2,35 -2,41 -4,37 -6,19 -5,16 -19,31 -31,25 -6,4 -20,16 -28,21 -7,4 -19,8 -14,5 -8,4 -36,20 -41,30 -41,43 -30,59 -32,118 -14,26 -22,36 -5,7 -14,21 -25,35 -48,68 -13,23 -13,25 -17,47 -10,40 4,37 1,13 -5,56 -5,60 -15,51 -11,23 -4,7 -29,59 -41,64 -44,33 -29,22 -37,23 -60,28 -31,-9 -16,-4 -90,-21 -42,-12 -57,0 -61,5 -49,25 -42,31 -21,28 -43,21 -40,13 -41,9 -45,-1 -26,0 -35,10 -9,21 -6,35 20,40 59,61 59,55 31,35 14,33 3,10 9,43 7,11 19,34 23,63 2,8 15,42 10,60 8,50 2,10 1,9 2,87 -21,85 -31,67 -71,115 -45,51 -63,56 -26,53 -8,59 28,61 54,80 47,35 56,14 72,4 34,2 73,13 87,35 53,45 35,48 30,48 -1,35 -4,15 -4,22 -31,29 -29,19 -12,10 -26,22 -31,43 -9,18 10,45 24,32 10,13 44,37 35,44 15,26 9,16 15,60 2,56 -1,8 -7,48 -17,47 -10,32 -7,13 7,33 3,24 25,48 10,55 -6,64 -15,66 0,45 1,11 2,35 2,14 5,42 -8,55 -17,51 -3,11 -22,65 -56,114 -57,116 -4,8 -30,76 -21,91 -11,79 3,92 -1,55 13,35 27,18 36,-8 46,1 31,7 16,26 1,8 3,20 27,70 26,51 10,21 46,49 27,26 19,29 -6,61 2,35 10,56 24,28 38,57 51,30 31,0 30,-20 16,-46 16,-57 16,-47 35,-18 31,3 34,27 27,33 30,48 56,45 29,30 20,13 64,17 9,0 63,4 97,-5 46,-1 31,0 43,-30 23,-25 6,-7 30,-29 16,-13 24,-18 52,-15 81,19 100,9 83,4 82,8 53,11 30,6 44,16 22,7 47,37 41,56 14,22 28,50 30,69 31,91 14,56 13,35 -1,75 6,56 20,45 33,37 29,3 33,-13 32,-44 30,-12 15,3 11,0 38,32 20,33 10,66 6,75 -10,61 -36,71 -42,48 -14,28 -2,29 -7,46 15,55 62,61 51,39 9,8 33,31 12,44 1,10 4,26 5,35 2,25 -4,86 -3,83 -3,117 -8,325 -118,121 -123,136 -24,28 -66,38 -47,49 -50,50 -30,48 -6,9 -36,60 -32,38 -24,44 -9,50 1,15 -3,21 -2,45 5,56 4,35 13,45 36,123 -46,5 -49,3 -1,77 -76,6 -66,3 -98,6 2,81 -158,13 -3,61 0,26 -311,26 5,60 -137,-8 -148,-10 -118,-9 -230,-19 -51,-20 -43,-30 -39,-25 -16,-4 -20,-6 -36,21 -26,35 -3,7 -32,64 -35,78 -46,105 -133,16 -2030,281 -1078,143 -481,69 -194,26 -292,37 -971,133 -951,132 -966,128 -971,132 -706,96 -286,42 -992,133 -981,138 -164,21 -838,111 -920,128 -163,21 -159,21 -639,90 -644,85 -307,43 -822,111 -460,64 -1610,218 -506,69 -138,21 -21,0 -1022,143 -194,27 -327,43 -164,21 -199,27 -296,37 -1002,143 -869,117 -5,-25 -11,-51 -15,-90 -16,-31 -31,-101 -11,-40 0,-55 -5,-107 -1,-136 -11,-111 -16,-106 -21,-81 -20,-75 -37,-71 -36,-65 -31,-81 -46,-70 -47,-81 -25,-20 -26,-30 -16,-35 -20,-46 -36,-35 -21,-25 -20,-15 -26,-15 -10,0 -16,-20 -15,-15 -16,-25 -30,-15 -47,-20 -35,-10 -41,-5 -51,1 -57,10 -51,16 -30,20 -16,15 -10,0 -10,-10 -21,-20 -15,-50 14,-116 41,-71 82,-51 66,-31 82,-6 98,116 56,19 41,15 72,25 67,111 -46,91 11,51 81,-41 26,30 -56,35 46,91 88,151 62,111 62,100 46,0 -15,101 21,76 16,50 25,46 31,30 98,50 25,-26 25,-35 41,-46 5,-10 36,-51 -21,-136 -57,-45 -31,-51 -51,-9 -10,-41 -16,-50 20,-36 -52,-131 0,-65 -46,-41 51,-20 -72,-96 -46,-55 -190,-95 -175,-150 -67,-35 15,-50 0,-81 -67,-55 -112,-5 -138,1 -67,26 -35,81 -87,11 -92,106 6,36 5,25 -30,66 5,76 11,30 41,20 0,25 -21,15 -10,21 0,40 6,15 0,25 5,21 -5,15 -10,40 -10,15 -21,6 -10,-5 -15,-5 -5,-10 -6,-21 -10,-40 -5,-30 -16,-51 -5,-60 -26,-61 -11,-35 -10,-25 -10,-20 -6,-30 5,-26 -5,-45 -5,-61 -11,-65 -10,-26 -6,-25 0,-30 10,-20 0,-76 5,-51 10,-65 4,-56 16,-46 15,-25 15,-5 16,15 20,0 15,-5 10,-11 -5,-25 5,-25 10,-5 16,0 15,10 16,10 20,-11 5,-15 0,-10 -15,-10 -11,-5 -20,0 -15,-5 -6,-15 0,-6 5,-14 6,-5 20,0 15,5 10,-5 0,-11 11,-5 10,0 15,15 11,10 5,10 15,-5 20,0 31,5 36,5 36,0 20,-1 16,-10 10,-10 5,-20 5,-15 -11,-26 -15,-40 -5,-25 -6,-20 11,-31 4,-55 10,-31 0,-30 -10,-30 -16,-10 -20,0 -15,10 5,10 15,0 10,10 -20,15 -20,6 -26,-5 -10,-10 5,-15 -10,-11 -11,-4 -20,10 -20,20 -6,15 -5,21 -10,5 -15,0 0,20 -5,30 -5,31 -10,25 -20,15 -16,0 -10,-5 -21,-15 0,-50 -10,-25 -16,-20 -20,-10 -26,0 -30,10 -10,15 -6,16 16,35 15,10 6,10 -11,10 -5,15 1,5 15,0 10,10 10,5 -5,6 -10,4 -15,11 -5,15 10,15 10,10 10,-5 11,-15 10,-6 10,10 -5,26 0,10 16,5 0,10 5,10 -10,20 -5,21 -11,20 -10,0 -5,-10 5,-15 -10,-21 -15,21 0,30 5,15 10,10 10,5 6,10 -11,5 -15,6 -20,-5 -26,0 0,-41 -1,-96 -5,-101 -6,-70 -21,-71 -26,-65 -20,-46 -31,-35 -21,-15 -15,-5 -15,-10 -6,-25 -15,-20 -16,-15 -10,-20 -5,-15 -15,-15 -16,-5 -20,-10 0,-10 -6,-26 0,-40 -5,-35 -11,-26 -5,-30 0,-25 5,-35 10,-21 10,-20 15,-20 16,-21 10,-10 20,-10 21,-5 15,5 21,5 20,-1 20,-5 26,-20 20,-36 26,-60 9,-56 10,-66 5,-50 -10,-51 -6,-35 -15,-25 -5,-36 10,-40 -1,-56 -10,-30 -16,-70 -15,-66 -21,-96 -11,-86 -21,-85 -26,-86 -21,-86 -31,-70 0,-46 5,-40 -16,-71 -21,-85 -21,-81 -10,-55 -11,-21 -15,-35 -11,-25 -10,-35 -5,-51 -16,-50 -21,-61 -21,-45 -51,-80 -36,-61 -16,-55 -16,-50 -20,-56 -21,-60 -36,-86 -47,-151 -16,-40 -26,-56 -62,-146 -47,-116 -36,-75 -36,-86 -21,-40 -36,-55 -15,-40 -16,-46 -21,-35 -25,-25 -26,-35 -16,-25 -41,-71 -36,-65 -46,-50 -47,-71 -57,-70 -77,-100 -36,-41 -31,-40 -51,-70 -78,-100 16,-11 20,10 10,-10 -31,-50 -25,20 5,20 -10,11 -72,-106 -67,-90 -62,-91 -47,-70 -72,-106 -67,-95 -88,-110 -82,-101 -67,-90 -72,-106 -93,-100 -52,-60 -51,-55 -46,-46 -83,-80 -56,-50 -62,-45 -41,-35 -57,-50 -51,-35 -36,-30 -57,-45 -61,-45 -57,-25 -56,-30 -21,-15 -15,-15 -41,-20 -31,-9 -51,-20 -16,0 -20,-5 -15,-15 -31,-15 -16,-20 -20,-15 -11,-10 -10,-15 -10,-25 -26,-41 -31,-60 -21,-30 -41,-50 -16,-30 -20,-15 -31,-25 -10,-21 -11,-10 -10,-15 -16,-30 -30,-20 -21,-20 -15,-20 -6,-10 -20,-20 -36,-35 -36,-40 -31,-20 -26,-25 -41,-30 -36,-25 -31,-30 -46,-25 -41,-25 -57,-25 -36,-30 -25,-10 -16,-10 -10,-10 -15,-5 -21,-5 -20,0 -31,1 -10,0 -10,5 -41,0 -31,-20 -31,0 -25,16 -5,15 -26,10 -26,0 -30,-9 0,-21 -1,-15 -15,-25 -10,-25 -11,-30 -15,-10 -5,-20 -16,-26 -16,-30 -10,-25 -10,-15 -21,-5 -15,-5 -16,-10 -10,-5 -10,-10 0,-15 -5,-10 -11,5 -30,-30 -6,-15 -5,-20 -5,-25 -11,-20 -10,-16 -20,-15 -16,-30 -10,-10 -47,-45 -31,-30 -5,-10 -10,-5 -10,-15 -21,-10 -10,-20 -26,-25 -15,-30 -21,-25 -46,-40 -31,-41 -36,-40 -16,-35 -20,-20 -21,-10 -10,-10 -36,-5 -21,-10 -10,-5 -26,-9 -15,-5 -46,0 -10,-5 -11,0 -10,-15 -10,-30 -11,-10 -5,-10 -20,0 -16,15 -10,0 -10,-20 -11,-10 -10,-5 -10,5 -10,-5 -6,-20 0,-15 -10,-15 -15,-35 -26,-10 -36,-10 -26,-20 -20,-25 -21,-20 -26,-25 -25,-15 -26,-20 -16,-15 -30,-15 -21,-10 -15,-10 -11,-5 -20,-15 -16,-10 -20,-15 -21,-5 -20,-15 -31,-15 -21,-25 -10,-15 -20,-10 -16,0 -20,16 -16,-36 -10,-20 0,-20 -5,-15 -6,-15 -20,-30 -11,-10 -10,-31 -26,-25 -20,-15 -26,-4 -41,5 -26,0 -20,5 -20,0 -11,-15 -5,-15 10,-30 15,-20 21,-16 15,-10 26,5 5,10 5,15 5,20 10,-5 16,-20 0,-15 -6,-15 -5,-20 5,-11 10,-15 16,-15 15,-10 10,-10 15,-16 -5,-10 -5,-20 5,-15 -5,-25 0,-15 -11,-25 10,-21 5,-15 16,-40 5,-10 25,-16 15,10 21,5 10,-10 -10,-20 -21,-20 -36,-10 -41,0 -20,10 -20,21 -5,25 -5,20 5,31 5,25 0,35 -5,30 -4,31 5,25 0,15 -10,25 -31,31 -15,5 -26,10 -20,15 -15,21 -15,25 -11,15 -15,16 -31,0 -20,-15 -26,-15 -31,-15 -20,-10 -21,-15 -20,0 0,35 10,26 11,15 5,15 -5,10 -10,-10 -11,-5 -15,-10 0,10 10,20 11,10 25,10 26,5 20,0 21,5 36,4 25,5 16,15 20,0 16,-10 20,10 10,10 26,15 26,10 25,10 26,10 26,-1 20,5 21,10 15,15 5,25 -56,-14 -61,-20 -67,-15 -82,-24 -72,-20 -46,-5 -21,0 -10,-10 -20,-15 -6,-15 -10,-20 -21,-30 -25,-40 -37,-30 -41,-35 -51,-25 -56,-30 -62,-40 -67,-35 -57,-50 -66,-40 -36,-24 -57,-25 -56,-30 -36,-30 -52,-30 -56,-40 -52,-50 -36,-40 -41,-25 -57,-60 -66,-65 -57,-71 -42,-50 -51,-60 -41,-50 -36,-40 -16,-25 -26,-15 -36,-25 -20,-20 -16,-20 -15,-15 -31,-40 -41,-41 -31,-30 -16,-5 -15,-9 -21,-5 10,-21 -15,-35 87,0 21,15 20,35 5,10 72,50 26,25 41,45 47,45 25,15 16,-15 -21,-25 -72,-55 -10,-16 -36,-50 -11,-25 -51,6 -5,-11 -5,-10 20,-15 15,-55 -10,-10 -21,15 -15,25 -41,-25 -15,-5 -46,16 -16,0 -10,-5 -36,0 -10,5 -15,5 -16,-5 -10,-4 -10,-5 -16,-5 -10,-15 -26,-15 -15,0 -26,-10 -15,-20 0,-31 -1,-35 26,-35 20,-11 16,-10 -11,-5 -41,-25 -15,-15 -36,-30 -42,-50 -51,-50 -21,-15 -10,5 0,10 11,36 15,10 15,4 16,21 10,10 0,10 -10,0 -20,5 -16,20 1,30 0,16 25,25 16,10 56,40 11,15 0,15 -10,0 -11,-5 -41,-25 -41,-30 -31,-20 -72,-40 -87,-19 -61,-20 -164,-29 -52,-5 -46,0 -10,11 -41,10 -15,-5 -16,-10 -20,-5 -41,6 -36,20 -10,10 31,35 98,50 52,166 -169,1 15,-20 62,0 30,-46 -5,-35 -36,-5 0,-35 -57,-5 1,71 -31,0 -1,-61 -56,41 42,45 5,30 -82,-55 5,-55 35,-31 21,-20 15,-5 0,-20 -11,-5 -71,0 -37,-80 41,-51 61,-26 -5,-20 -92,41 -5,-20 92,-41 -5,-20 -118,61 -174,52 -61,36 -15,-35 10,-16 10,-20 15,-15 15,-20 11,-21 -6,-10 -15,5 -10,11 -41,55 -61,97 -10,-46 -41,6 21,30 5,40 -51,71 -5,-35 0,-35 5,-21 5,-10 -11,-5 -10,5 -15,41 5,15 -5,15 -10,5 -20,-10 -6,-15 5,-30 20,-81 -46,10 -5,-30 -16,-10 1,20 0,36 5,20 5,35 1,15 -16,21 -5,10 -15,5 -10,-5 -11,0 -15,5 -10,0 -15,10 0,15 15,-5 20,0 11,5 25,0 11,-5 25,0 15,5 1,10 5,15 -15,15 -11,20 1,15 5,10 -10,26 -10,35 0,25 5,26 11,40 15,45 21,35 15,30 1,26 -11,-5 -10,-5 -5,-20 -5,-15 -16,-16 -10,6 5,20 21,30 5,20 0,15 5,15 -10,15 -10,-10 -5,-20 -6,-20 0,-20 -10,-10 0,-10 -16,-10 -10,0 -10,15 11,30 0,20 -10,11 -16,10 -10,10 0,15 16,40 -5,11 -10,15 -11,20 -10,10 -15,5 -21,0 -10,1 -15,-5 0,-11 -5,-20 -21,-15 0,-10 -16,-5 -10,-5 -25,1 -36,-15 -21,-10 -15,-10 -16,-10 -15,-5 -15,10 -11,0 -10,-5 -20,-20 -16,0 -20,-15 -16,-5 -36,-15 -41,-19 -46,-15 -51,-30 -16,-10 -41,0 -15,-10 -10,-15 -6,-20 -15,-20 -16,-20 -10,-5 -10,-20 -21,-10 -10,-10 -21,0 -10,5 -15,0 -10,5 -11,0 -20,-4 -15,5 -11,15 -10,0 0,-25 -21,-20 -20,-5 -21,0 -20,5 -10,10 -16,6 -10,5 -15,5 -10,0 -21,15 -15,5 -15,10 -16,1 -15,-10 -16,-5 -15,-20 -10,-5 -16,-5 -20,-5 -10,5 -16,0 -10,-20 0,-35 -6,-20 0,-16 -5,-10 0,-30 -5,-15 -11,-15 -10,-15 -5,-25 -5,-10 -1,-16 -10,-15 -10,1 -10,-5 -16,-10 -5,-16 -10,-25 5,-10 10,-5 0,-10 -5,-10 -16,-15 -10,-5 -21,-10 -5,-10 5,-15 0,-10 20,-16 11,-25 10,-25 25,-31 31,-15 30,-20 31,-21 25,-25 5,-15 -5,-15 0,-26 10,-5 10,-15 67,-31 40,-35 5,-36 5,-50 5,-71 4,-86 -5,-25 -6,-80 -26,-71 -30,-15 -6,-20 16,-5 -6,-15 -25,0 5,-20 -6,-25 -36,-111 -26,-60 -21,-61 -52,-110 -52,-136 -83,-171 -73,-166 -67,-136 -57,-95 -36,-75 -11,-15 -77,-121 -11,-30 -15,-35 -42,-45 -41,-61 -41,-45 -42,-50 -56,-75 -26,-60 -47,-50 -51,-45 -52,-55 -21,-26 -41,-40 -20,-14 -88,-60 -20,-10 -67,-30 -31,-15 -41,-15 -41,-10 -41,-4 -26,5 -66,0 -26,-10 -20,-9 -31,-5 -31,0 -31,5 -30,5 -10,6 -31,10 -36,-5 -82,1 -72,0 -15,5 -25,16 -26,10 -36,0 -41,-5 -31,-4 -30,-5 -31,-5 -36,5 -26,6 -56,0 -20,-5 -36,0 -51,1 -57,0 -46,-5 -46,1 -31,0 -25,5 -31,21 -10,15 -15,35 -10,0 -5,10 -21,1 -31,-10 -30,-10 -26,-5 -21,5 -35,5 -26,16 -25,5 -31,5 -26,0 -46,-9 -61,-5 -108,-4 -41,5 -46,11 -82,20 -20,21 -20,15 -26,5 -31,11 -56,10 -61,6 -46,10 -31,15 -20,16 -26,25 -5,15 -15,30 -10,31 -10,20 -15,15 -21,16 -36,15 -10,0 -10,15 0,25 -15,11 -10,0 -21,-15 -21,-30 -25,-35 -31,-46 -52,-45 -51,-45 -62,-40 -52,-39 -56,-45 -52,-20 -30,-15 -31,-5 -26,0 -31,-10 -35,-4 -31,-10 -98,0 -51,-9 -61,-5 -52,-10 -66,-19 -52,0 -20,-5 -26,-5 -10,-10 -21,-10 -25,-14 -36,-5 -26,10 -20,5 -26,15 -25,1 -31,-5 -41,-15 -51,-15 -78,-45 -51,-24 -62,-40 -15,-10 -26,-5 -10,-5 -26,-10 -15,-5 -31,-5 -25,-15 -42,-20 -51,-14 -41,-10 -36,-5 -20,0 -11,-10 -25,-10 -6,-15 -20,-10 -26,1 -25,-15 -11,-10 -31,-30 -25,-20 -42,-25 -36,-25 -30,-10 -41,-10 -62,1 -31,5 -10,-5 -31,-15 -20,-5 -26,5 -51,-50 -46,-15 -26,-14 -31,-15 -41,-20 -31,-25 -21,-10 0,-10 16,5 20,15 31,20 21,-1 -1,-25 -20,-10 -21,-10 -15,-10 -16,-20 -10,-5 -15,1 -10,-10 -6,-16 -10,-10 -21,1 -15,-5 -10,-5 -10,5 -10,30 -11,5 -15,5 -20,-4 -36,-10 -41,-10 -36,-10 -21,-15 -20,-10 -11,-15 5,-15 -5,-10 -10,-10 -16,-10 -10,10 0,25 -5,10 -15,11 -5,10 -16,0 -46,-10 -15,20 67,20 15,0 16,10 20,-5 21,0 20,10 21,15 20,9 36,5 21,10 25,-5 21,-5 20,0 16,-1 10,0 15,-5 21,0 20,5 5,10 0,10 -51,0 -10,6 -31,10 -25,25 -31,11 -56,-15 -41,-15 -67,-20 -31,-15 -77,-64 -46,-25 -31,-20 -47,-45 -66,-35 -42,-35 -20,-20 -98,-80 -36,-35 -57,-45 -46,-40 -36,-20 -41,-15 -21,-5 -41,6 -25,0 -11,-10 5,-10 10,-10 47,4 10,-15 -31,-20 -5,-20 -16,-15 -15,-10 -10,30 0,16 -5,30 -10,10 -21,10 -20,-10 -21,-30 -26,-50 -21,-30 0,-25 10,-11 26,-25 -5,-25 -1,-20 -10,-20 -15,5 -11,5 -9,55 -21,21 -36,-71 -21,-30 -36,-90 -68,-146 -26,-85 -31,-66 -31,-65 -16,-25 -16,-50 -36,-86 -26,-75 -11,-61 -11,-35 -10,-70 -5,-10 4,-26 11,10 10,10 0,15 11,21 0,30 10,15 10,-15 21,-6 0,-30 -42,-70 -15,0 -26,5 -10,-35 -31,-55 -11,-25 -36,-50 -26,-41 -31,-19 -41,-20 -41,0 -20,5 -31,5 -62,-9 -36,-5 -20,-15 -41,-15 -31,-20 -46,-24 -31,-20 -36,-20 -26,-15 -41,-35 -26,-35 -31,-40 -21,-20 -36,-41 -26,-25 -46,-40 -67,-60 -36,-30 -15,-9 -26,-10 -21,0 -35,10 -36,5 -16,6 -15,0 -26,-5 -25,-15 -21,-25 -31,-40 -21,-40 -20,-25 -26,-25 -16,-20 -31,-15 -20,-15 -31,-40 -36,-46 -42,-40 -26,-35 -31,-25 -20,6 -10,-5 -26,0 -31,-10 -25,-10 -31,-20 -36,-35 -21,-45 -21,-30 -15,-15 -31,-35 -36,-10 -41,-20 -26,5 -15,0 -26,6 -41,0 -15,-5 -5,-10 -6,-10 -10,-10 -5,-25 -6,-25 -15,-10 -20,-10 -16,-10 -10,-5 -21,-10 -20,5 -46,0 -41,-4 -52,-15 -46,-10 -20,-20 -16,-10 -36,-20 -31,-30 -21,-20 -25,-10 -26,6 -25,5 -16,-25 -10,-20 -16,-10 -25,-10 -16,-10 -36,-10 -31,-30 -41,-35 -5,-10 -26,-25 -61,0 -31,1 -10,5 -31,0 -62,-10 -51,-14 -46,-20 -36,-20 -46,0 -16,5 -20,-4 -36,-10 -72,0 -36,6 -25,0 -36,10 -36,15 -20,6 -16,0 -25,-5 -21,-10 -25,0 -47,-5 -25,1 -46,10 -72,1 -36,10 -56,-5 -82,36 -56,31 -25,25 0,20 10,15 5,11 -5,10 -20,5 -31,10 -15,10 -15,21 -21,25 -30,10 -21,5 -41,1 -20,-10 -82,0 -26,6 -26,-10 -25,-10 -26,-10 -21,-20 -36,-10 -10,-10 -10,-5 -16,-15 -35,0 -26,6 -10,-10 -11,-15 -25,-10 -31,-25 -31,-5 -26,-10 -36,-5 -82,-44 -20,-10 -47,-20 -92,-10 -26,-4 -20,5 -31,0 -25,5 -36,11 -31,0 -31,-5 -61,-5 -36,1 -26,5 -10,10 -15,5 -10,0 -26,11 -35,45 0,20 -5,26 -21,15 -20,-10 -41,-15 -26,-5 -20,-10 -26,-5 -72,1 -41,5 -25,0 -26,6 -10,5 -16,-5 -5,-10 -5,-15 -21,-30 -10,-30 -11,-15 -30,-15 -26,-20 -31,-15 -31,5 -20,-10 -16,-15 -20,-10 -31,-15 -36,-25 -46,-30 -42,-19 -30,-10 -26,0 -41,-15 -31,0 -26,6 -25,0 -36,-5 -31,0 -36,-10 -46,-9 -62,-30 -61,-40 -57,-30 -26,-15 -10,-15 -15,-15 -31,0 -16,-4 -15,0 -20,-10 -16,-20 -21,-25 -15,-5 -31,-20 -26,-5 -10,-10 -31,-10 -20,0 -21,-5 -25,1 -47,0 -40,20 -16,0 -25,-4 -16,-10 -25,-5 -26,-15 -31,-10 -31,-5 -51,16 -46,5 -31,5 -30,-10 -31,1 -36,-5 -10,-5 -16,0 -25,10 -16,16 -30,10 -26,0 -25,-5 -47,1 -46,-5 -36,0 -15,-5 -56,-25 -67,-39 -26,-15 -36,-15 -87,-20 -82,-14 -41,-5 -72,6 -46,5 -41,0 -46,11 -31,5 -56,0 -36,-4 -51,0 -26,10 -15,0 -26,1 -20,-5 -82,0 -52,-4 -92,0 -41,-4 -51,5 -10,5 -46,11 -41,5 -41,0 -67,6 -56,-5 -46,6 -10,0 -57,-10 -25,-5 -47,11 -20,0 -20,10 -11,0 -25,-15 -41,-10 -36,-15 -11,-10 -20,-4 -21,5 -15,5 -15,25 -21,10 -10,1 -15,-5 -21,5 -35,10 -36,15 -67,21 -66,-4 -16,10 -35,10 -31,16 -26,10 -30,0 -31,5 -21,0 -30,-4 -26,0 -41,10 -46,1 -67,0 -35,10 -36,6 -62,5 -76,1 -77,-5 -51,16 -36,10 -46,21 -31,10 -30,10 -26,-10 -36,-9 -56,0 -41,5 -36,11 -36,15 -10,15 -5,36 -15,10 -10,-5 -11,0 -10,-10 -10,0 -16,-30 -10,-15 -10,-10 -26,-5 -16,-5 -20,0 -15,5 -6,-40 -10,-25 -6,-30 -10,-41 0,-40 -16,-60 -6,-46 -20,-25 -26,-45 -26,-35 -26,-25 -26,-30 -10,-15 -21,-40 -16,-10 -15,-15 -10,-15 -6,-30 -16,-51 -26,-50 -41,-70 -21,-50 -46,-50 -42,-45 -62,-30 -72,-45 -61,-20 -52,-19 -66,-30 -31,-20 -36,-35 -26,-25 -21,-15 -26,-10 -30,-5 -11,-10 -41,-40 -20,0 -42,-4 -66,0 -36,-5 -36,-9 -36,5 -25,0 -16,10 -5,10 -10,5 -25,6 -42,-5 -35,10 -11,0 -15,-5 -5,-15 -16,-15 -10,-10 -21,-25 -10,-5 -10,-10 -16,0 -15,1 -10,-5 -16,-15 -5,-10 5,-16 5,-20 0,-25 -11,-10 -5,-15 -10,-20 -16,-10 -5,-25 -15,-5 -11,0 -15,10 -31,0 5,-15 10,-10 16,-5 10,-10 15,-11 0,-45 -5,-25 5,-15 20,-10 10,-16 10,-20 5,-20 0,-55 -11,-16 -5,-25 0,-20 15,-15 20,-30 10,-21 15,-45 21,-51 14,-60 21,-36 35,-86 25,-55 30,-101 40,-96 25,-81 20,-46 25,-85 25,-101 15,-51 10,-40 10,-25 5,-56 5,-20 -11,-30 -10,-25 -16,-20 -15,-26 -11,-15 -10,-20 -6,-35 -15,-35 -5,-15 -21,-40 -26,-35 -16,-25 -20,-20 -21,-20 -26,0 -10,-10 -10,-25 -6,-20 -10,-31 0,-30 -6,-30 0,-25 -15,-15 -21,-15 -16,-20 -5,-25 0,-10 10,-51 15,-25 15,-61 25,-60 15,-46 35,-76 25,-96 25,-80 10,-46 30,-121 24,-151 15,-61 5,-65 0,-21 4,-65 0,-50 -11,-41 -21,-45 -41,-45 -46,-40 -31,-25 -31,-20 -26,-20 -21,-20 -20,-10 -16,-20 0,-20 -5,-30 -1,-50 -10,-20 -16,-20 -10,-31 -10,-20 -26,-25 -26,-15 -26,6 -61,5 -31,0 -15,5 -15,1 -21,-10 -15,0 0,-10 10,-26 4,-25 15,-60 30,-81 10,-61 0,-15 -15,-20 -11,-10 0,-10 25,-50 21,-31 25,-91 24,-121 35,-131 15,-40 35,-117 30,-111 25,-85 30,-127 9,-75 25,-131 9,-86 20,-116 4,-101 10,-55 5,-91 -6,-45 -5,-51 4,-80 -11,-81 0,-60 -6,-35 -21,-156 -11,-36 -26,-90 -16,-55 -36,-56 -42,-55 -31,-35 -21,-25 -41,-20 -31,-9 -56,0 -36,5 -15,0 -16,-9 -26,-41 -10,-20 -20,-5 -11,-5 -15,-4 -16,-10 -25,-25 -16,-25 -41,-40 -26,-30 -118,-50 -36,0 -21,16 -15,-10 -31,5 -20,0 -31,-35 -26,-10 -82,-4 -41,10 -41,5 -31,21 -15,5 -20,40 5,36 0,20 1,20 5,20 -10,15 -5,10 -26,5 -15,-4 -26,-10 -41,-20 -10,-10 -37,-35 -41,-25 -15,-25 -16,-25 -36,-25 -16,-20 -15,-10 -36,-10 -10,-5 -26,-15 -31,-25 -26,-15 -20,-5 -26,-9 -15,-5 -21,-20 -46,-25 -31,-25 -36,-20 -16,-10 -15,-5 -21,-10 -36,6 -20,-10 -36,-40 -16,-10 -15,-15 -6,-10 -10,-10 -20,0 -21,-5 -10,-15 -11,-10 -41,-10 -5,-30 -10,-20 -6,-10 -5,-10 -31,-35 -72,-30 -16,-55 -31,-45 -82,-75 -62,-60 -47,-65 30,-36 0,-15 -36,-60 25,-21 5,-10 10,-30 5,-30 0,-71 5,-20 10,-10 26,5 15,-25 -11,-26 5,-20 20,-40 21,-41 35,-80 40,-86 15,-41 20,-65 15,-41 20,-65 15,-61 10,-50 10,-46 9,-90 5,-46 10,-75 10,-56 5,-15 -11,-65 15,-16 16,10 10,25 10,31 -4,30 -10,20 -11,30 12,101 -15,66 5,60 -25,30 6,81 -26,30 -30,76 5,25 26,-30 46,-21 41,-15 30,-26 51,-10 21,-15 0,-15 -21,-15 -15,-20 -1,-26 21,-10 41,10 31,-5 40,-41 21,-15 -16,-20 -31,-10 -41,-10 -26,-5 -25,-15 -6,-15 21,0 10,-15 -20,-15 -6,-30 -32,-111 -30,-25 -1,-35 -16,-55 -25,-25 -21,-10 -46,31 -36,25 -10,-20 0,-20 25,-16 21,-5 5,-15 0,-25 -1,-20 5,-30 0,-56 -6,-60 -15,-50 -22,-81 -20,-50 -27,-50 -20,-55 -21,-36 -31,-60 -32,-60 -31,-60 -52,-55 -56,-50 -21,-20 -56,0 -31,6 -11,-15 -10,0 -10,-5 -15,15 -82,0 -16,1 -36,0 -46,15 -20,-5 -16,-10 -25,1 -21,5 -10,5 -15,-10 0,-15 -6,-20 -5,-10 -21,-10 -41,-20 -25,-15 -21,-5 -26,-5 -10,-30 -67,-4 -41,-5 -51,-5 -26,-10 -15,-10 -11,-15 -25,-4 -16,10 -15,15 -15,5 -16,15 -20,0 -26,-20 -26,-24 -10,-31 -31,-35 -21,-35 -31,-40 -52,-60 -10,-25 -26,-10 -41,-50 -36,-5 -16,-25 -5,-20 -26,-10 -5,-20 -26,-20 -21,-35 -15,-30 -31,-10 -31,-40 -21,0 -36,-40 -10,-25 -26,-25 -73,-75 -15,-30 -83,-95 -16,-5 -15,-25 -21,-25 -57,-65 -51,-60 -16,-55 5,-36 -21,-20 -26,-40 -16,-35 -15,-30 -6,-35 -21,-50 -41,-35 -16,-45 -26,-76 -21,-35 -51,-55 -21,-10 -26,-25 -41,-35 -21,-35 -5,-20 -11,-45 -31,-10 -20,-25 -6,-10 -26,-50 -57,-90 -77,-65 -26,-20 -41,-20 -52,-10 -15,0 -26,-5 -35,6 -10,25 15,50 -15,0 -41,-35 -16,-40 -41,6 -10,-5 -16,-25 -10,-26 -11,-15 -41,-30 -92,-24 -46,10 -42,-19 -41,0 -31,-10 -30,-15 -37,-35 -36,-30 -46,-40 -21,-5 -30,16 -26,-10 0,-10 -21,-20 -31,5 -25,-10 -26,-15 -20,21 -10,20 -16,5 -10,-15 10,-41 5,-35 -21,-50 -16,-10 10,-20 -5,-15 0,-40 -26,-56 -16,-35 -26,-35 -15,-25 -52,-40 -26,-40 -16,-30 -10,-20 -16,-5 -20,-20 -11,-10 -10,-20 20,-46 -5,-50 -11,-30 -26,-40 -5,-15 -5,-30 4,-46 -21,-45 0,-20 15,-30 5,-20 0,-21 -5,-25 -10,-20 -11,-15 -10,-10 -26,0 -20,-9 -11,-21 -5,-15 10,-10 15,-20 0,-70 -16,-31 -26,-35 -10,-15 -11,-10 -5,-15 -5,-25 -5,-15 -21,-20 -15,-5 -21,-30 -11,-20 -26,-35 -20,-15 -16,-20 -31,-40 -20,-20 -26,-15 -11,-15 -15,-5 -16,-20 -10,-5 -10,-15 -16,-5 -10,-5 -15,-10 -6,-10 -25,-5 -16,-10 0,-20 -5,-15 -26,-15 -46,-30 -36,-29 -21,-21 -21,-35 -21,-30 -26,-45 -31,-35 -26,-30 -5,-30 -31,-30 0,-10 -10,-25 -16,-25 -11,-25 -15,-15 -11,-20 -20,-15 -21,-10 -25,-10 -26,-5 -26,-10 -20,-20 -11,-5 -21,-30 -20,-10 -21,-10 -15,0 -11,-20 -5,-15 -20,-20 -16,0 -5,-10 -10,-10 -16,-30 -15,-15 -26,-30 -21,-15 -15,-10 -31,-24 -6,-16 -5,-20 -5,-15 0,-15 -1,-20 11,-30 -6,-20 -10,-20 -11,-15 -5,-21 0,-10 10,-25 0,-15 -16,-15 -31,-30 -15,-35 -11,-20 -5,-25 -10,-30 10,-16 20,-15 5,-15 10,-15 0,-10 -5,-15 -11,-15 -46,-20 0,-45 5,-16 0,-25 -6,-15 -15,-25 -11,-25 -5,-20 -5,-30 -16,-15 -5,-20 0,-25 -6,-31 -5,-35 -6,-40 -10,-55 -16,-61 -21,-60 -6,-35 -26,-40 -20,-20 -11,-25 -10,-30 -21,-46 -21,-35 -21,-25 -31,-25 -36,-19 -20,-5 -31,-5 -15,-10 -21,-15 -10,-15 -16,-5 -41,-30 -16,-15 -20,-5 -16,0 -41,1 -20,-10 -26,-25 -21,-5 -35,-5 -36,-10 -31,0 -16,-9 -20,5 -16,0 -25,-5 -16,-15 -20,-15 -11,-20 -15,-35 -16,-50 -21,-41 -16,-45 -31,-40 -21,-25 -15,-15 -16,-15 -5,-15 0,-10 10,-10 10,-5 0,-20 -5,-15 -5,-10 -16,-20 0,-51 -5,-25 -21,-5 -26,-30 -21,-20 -30,-5 -21,-20 -11,-25 -15,-10 -26,-40 -10,-10 -6,-20 -10,-20 -15,-15 -11,-10 0,-10 -16,-40 -5,-10 5,-10 -10,-30 -6,-30 -10,-41 -6,-20 -15,-25 -5,-15 -11,-20 -10,-10 -16,-25 -15,-35 -6,-20 0,-10 -5,-20 -5,-15 -16,-15 -36,-20 -46,-45 -16,-25 -16,-20 -20,-40 -21,-31 -11,-20 -10,-25 -26,-25 -21,-25 -25,-25 -16,-15 -26,-25 -26,-30 -15,-20 -16,-25 -15,-30 -11,-20 -26,-25 -20,-15 -16,-10 -15,-5 -10,-5 -26,-20 -73,-65 -20,-30 -21,-50 -37,-35 -15,-25 -11,-20 -20,-15 -21,-10 -20,-30 -11,-10 -10,-15 -21,-15 -20,-10 -16,0 -15,-4 -21,-10 -15,-5 0,-10 -16,-10 -15,-15 -16,-5 -10,0 -10,-10 0,-10 -16,-15 -21,-15 -20,-15 -10,-5 -26,-10 -31,0 -26,-20 -31,-30 -36,-40 -36,-25 -21,-20 -26,-14 -20,-10 -21,-15 -20,-15 -26,0 -26,-10 -26,-25 -30,-15 -16,-10 -31,-5 -20,-15 -16,6 -30,5 -21,5 -10,-5 -11,0 -15,-5 -10,-5 -16,-5 -5,-10 -10,-15 -11,-20 -15,-10 -10,-10 -21,-10 -26,-15 -10,0 -10,-5 -11,-15 -5,-20 -10,-15 -11,-5 -10,-5 -15,-4 -6,-11 0,-10 -10,-40 -5,-10 -16,-40 -32,-65 -36,-86 -16,-30 -26,-25 -15,-20 -21,-20 -20,-10 -11,6 -36,0 -20,-30 -21,-20 -15,-20 -42,-20 -5,-10 -10,-10 0,-15 -11,-10 -15,-10 -10,0 -11,-15 -15,-15 -11,-35 -10,-20 -16,-20 -36,-10 -25,-5 -26,5 -15,5 -16,-4 -21,-26 -10,-15 41,-10 10,-30 20,-31 10,-55 0,-45 -6,-25 0,-46 10,-15 5,-15 0,-30 5,-20 0,-26 -6,-30 -10,-30 -16,-15 -15,-15 -37,-60 -10,-10 -16,-40 0,-10 15,-15 5,-16 -5,-10 0,-15 15,-30 0,-35 -5,-20 -11,-10 -10,-10 0,-10 5,-26 0,-10 25,-50 5,-35 0,-15 -11,-31 -5,-20 0,-50 -16,-30 -5,-15 -6,-15 -20,-20 -11,-5 -10,0 -10,-5 -10,-15 -1,-15 -5,-25 0,-15 -5,-26 -1,-25 -10,-30 0,-15 5,-30 10,-20 5,-26 -1,-30 -15,-25 -16,-20 -15,-35 -11,-50 -16,-25 -21,-45 -10,-36 -10,-15 -11,-10 0,-20 5,-20 10,-5 5,-10 10,-10 0,-25 -10,-41 -26,-40 -21,-25 -10,-25 -21,-20 -11,-35 0,-50 -5,-20 -11,-36 0,-10 -11,-30 -5,-10 -5,-15 -10,-15 -6,-10 0,-10 11,-5 15,-20 15,-15 15,-16 0,-15 -10,-5 -11,-30 5,-25 -5,-10 -5,-15 -16,-20 0,-10 -5,-20 -5,-15 -11,-10 -15,0 -10,-10 -11,-15 -15,-15 -11,-5 -15,-15 0,-10 -5,-10 -6,-20 5,-16 10,-5 11,0 10,10 15,0 16,-5 15,0 5,10 42,20 25,0 5,-11 21,-10 15,-5 21,-5 25,-5 10,-10 10,-31 -5,-25 -11,-35 -5,-20 -10,-25 -21,-10 -5,-10 -5,-15 -1,-25 5,-10 11,-16 10,-25 10,-20 -16,-80 -6,-26 -15,-10 -10,-10 -16,1 -10,0 -10,5 -11,-15 0,-15 -5,-15 -10,-5 -16,0 -10,-10 -10,-5 -11,5 -15,10 -10,10 -15,30 -21,-4 -26,-15 -46,-35 -21,-15 -30,-15 -26,-10 -11,-20 -15,-40 -21,-40 -10,-10 -1,-25 5,-11 16,-15 15,0 10,-5 41,0 21,-21 5,-10 5,-30 10,-25 10,-30 -1,-15 0,-36 10,-40 20,-50 15,-26 5,-15 21,0 20,15 21,0 20,-10 16,-21 20,-30 10,-30 10,-31 5,-20 0,-20 5,-20 15,-15 10,0 5,-10 0,-26 -5,-20 0,-15 15,-20 5,-15 36,0 46,19 26,15 26,20 5,15 16,25 51,20 31,20 31,30 57,50 10,10 16,25 21,50 10,35 16,41 10,25 21,4 26,5 35,5 36,-10 21,-10 36,-26 30,-20 36,-26 20,-20 26,-15 30,-36 46,-50 50,-76 16,-20 50,-91 41,-76 35,-51 20,-35 26,-56 35,-105 10,-26 20,-70 25,-56 10,-20 10,-45 4,-66 26,-65 4,-41 5,-55 15,-76 4,-80 5,-46 0,-50 -1,-65 0,-56 -1,-60 0,-35 20,-11 11,20 16,56 15,0 5,-15 0,-11 -16,-50 -10,-20 0,-10 -6,-25 0,-15 5,-20 5,-15 20,-31 -5,-10 5,-20 0,-50 10,-51 15,-35 10,-30 14,-86 20,-65 20,-56 5,-35 10,-25 16,-16 15,-10 20,-15 16,0 25,-15 46,-11 31,-10 0,-25 -16,-5 -25,5 -51,15 -31,16 -20,15 -31,5 0,-15 -6,-25 -10,-35 -21,-45 -11,-30 -26,-40 -20,-46 -21,-70 -16,-50 -16,-35 -5,-30 -6,-15 5,-21 10,-20 11,-10 0,-20 -31,5 -16,10 -10,-5 -10,-10 -11,-15 -20,-40 -16,-45 -16,-40 -16,-35 -10,-30 -42,-81 -52,-110 -26,-45 -26,-35 -26,-55 -26,-60 -26,-56 -32,-70 -46,-80 -47,-80 -94,-130 -36,-50 -62,-75 -57,-60 -46,-40 -42,-35 -46,-30 -72,-35 -41,-25 -21,-10 -21,-4 -10,-5 -31,-10 -25,-5 -26,-5 -31,10 -15,15 -20,16 -31,15 -26,20 -20,11 -15,5 -31,20 -10,15 -20,25 -10,16 -21,30 -25,20 -21,5 -10,16 -15,5 -15,10 -21,0 -21,-5 -31,-15 -10,-10 -21,-30 -15,-5 -21,6 -41,5 -36,-20 -46,-15 -26,-15 -20,-5 -62,1 -71,36 -20,45 0,20 -10,30 -10,11 -41,0 -21,5 -20,-5 -16,-5 -15,-5 -21,5 -20,11 -72,20 -15,0 -21,1 -10,-5 -21,-5 -20,0 -10,5 -16,5 -15,-5 -10,0 -26,-5 -16,-5 -25,-14 -21,-20 -15,-10 -16,5 -20,0 -16,5 -15,-5 -10,-10 -26,-5 -36,-10 -26,-9 -46,-10 -31,-10 -31,-20 -20,-15 -21,-15 -10,-5 -11,0 -10,-10 -10,-5 -11,-10 -15,-5 -10,-5 -11,1 -20,0 -16,-15 -15,-10 -21,-5 -10,0 -10,-5 -5,-15 -16,-25 -16,-20 -20,-20 -16,-10 -15,-10 -21,-5 -30,10 -16,-5 -10,-10 -6,-20 -5,-10 -5,-15 -10,-15 -16,-20 -15,-15 -31,-20 -36,-10 -26,-40 -31,-30 -62,-29 -36,-35 -21,-35 -36,-30 -21,-20 -15,-10 -11,-15 -26,-10 -10,-10 -15,-10 -11,0 -10,-10 -15,-10 0,-10 -11,-10 -10,-20 -11,-10 -31,-25 -10,-5 -10,-20 -11,-10 -25,0 -26,-15 -10,-25 -11,-30 -10,-25 -11,-35 -5,-25 -6,-26 -15,-4 -16,-15 -15,-20 -26,-25 -26,-35 -31,-41 -11,-30 -15,-10 -26,-15 -26,-25 -10,-20 -10,-15 -11,-20 0,-15 -10,-15 -6,-10 -15,-15 -11,-40 -5,-15 -5,-10 -16,-10 -10,-5 -15,-15 -11,-30 5,-20 -5,-15 -10,-5 -16,-20 -10,-10 -21,-10 -5,-10 -11,-30 -15,-30 -26,-35 -21,-20 -21,-25 -46,-45 -41,-40 -47,-40 -93,-55 -51,15 -20,6 -16,10 -20,10 -20,15 -11,-5 -15,-5 -6,-25 -10,-15 -15,-10 -26,0 -10,-15 -6,-10 0,-25 10,-20 5,-20 5,-30 0,-61 -6,-20 -10,-25 -31,-25 -11,-20 0,-10 -10,-20 -21,-20 -20,-5 -26,0 -10,-5 -16,-15 -15,-20 -16,-5 -10,-5 -10,-10 5,-10 5,-20 -6,-20 -5,-45 -6,-25 -20,-56 -11,-25 -15,-20 -11,-20 -21,-20 -25,-20 -16,-25 -46,-25 -11,-15 -15,0 -21,1 -10,0 -15,10 -10,10 -11,5 -10,0 -15,-15 -11,-20 -15,-40 -6,-35 -36,-40 -11,-25 -15,-15 -5,-15 -6,-15 0,-51 5,-30 -5,-30 -6,-10 -10,-15 0,-20 10,5 15,-5 0,-41 -15,-30 -6,-50 -16,-25 -15,-15 -16,-40 -10,-40 -1,-36 -5,-30 15,-90 5,-21 15,-45 4,-25 21,-36 -1,-30 0,-20 5,-15 10,-25 5,-10 -5,-10 10,-36 10,-25 10,-81 10,-70 4,-55 -5,-26 5,-20 0,-25 9,-50 20,-71 -5,-45 5,-20 10,-26 -5,-25 -1,-25 16,-25 4,-35 5,-20 5,-41 0,-45 -5,-25 4,-35 5,-31 5,-40 -5,-35 -6,-15 -5,-25 -15,-15 -16,-15 -16,-25 -5,-25 -10,-46 5,-15 -6,-30 -5,-20 -16,-15 -10,-20 -5,-15 -11,-10 -5,-10 -5,-25 0,-10 -16,-10 -10,-15 -10,-10 -11,-5 0,-15 -5,-15 5,-26 0,-35 -6,-15 -5,-25 -16,-15 -15,-20 0,-15 -6,-30 -10,-25 -10,-10 -16,-10 -10,-15 -11,-31 -5,-45 -6,-25 -10,-20 -10,-10 -16,-25 10,-30 -21,-30 -15,-20 -11,-30 0,-26 5,-25 0,-45 -6,-55 -6,-91 -11,-85 -11,-66 -10,-55 -16,-40 -42,-80 -26,-35 -46,-66 -47,-29 -56,-20 -41,-25 -52,-5 -31,11 -20,5 -20,25 -10,15 0,25 -5,10 -11,-5 -10,-15 0,-55 -11,-25 -5,-20 -31,-30 -21,-20 -15,-15 -26,-40 -21,-45 -16,-20 0,-56 -5,-10 -1,-25 -5,-15 -10,-15 0,-15 -6,-10 0,-15 16,-15 5,-10 -1,-36 5,-15 11,-15 9,-35 10,-36 5,-25 0,-40 -5,-15 -5,-20 5,-20 -1,-15 5,-15 -5,-11 -5,-20 -21,-10 0,-10 5,-15 0,-10 -10,-20 -11,-10 0,-15 5,-15 5,-10 11,-10 -1,-20 0,-56 5,-25 0,-20 -6,-20 -15,-25 15,-26 20,-5 16,-5 5,-15 15,-10 10,10 11,10 15,0 16,-5 20,-11 10,-10 16,-10 10,-25 -11,-30 0,-15 10,-10 31,-16 0,-15 -11,-30 10,-45 -10,-25 5,-10 15,-16 5,-10 5,-50 9,-111 4,-111 5,-55 0,-65 -6,-56 -10,-25 -6,-25 5,-20 10,-25 0,-36 -6,-40 -5,-55 -6,-55 -16,-71 -16,-110 -5,-25 -6,-31 0,-40 -21,-70 -6,-76 -11,-110 0,-61 -1,-50 -10,-40 -6,-45 -10,-30 4,-71 0,-96 -11,-50 -16,-60 10,-25 31,-26 20,-5 20,-25 41,-5 37,14 20,5 36,-10 31,-15 20,-26 15,-30 10,-25 10,-30 25,-61 0,-15 -10,-25 5,-20 15,10 10,0 11,15 36,4 36,35 21,10 41,0 41,-5 81,-21 16,5 36,0 20,-5 26,20 10,-11 16,0 25,-5 21,0 20,5 31,-10 36,-16 41,10 26,5 36,20 20,25 21,20 16,20 46,75 31,35 16,30 17,236 16,56 0,20 6,45 0,10 -10,20 15,10 0,10 -25,31 -15,10 5,10 31,10 5,10 -10,10 5,25 26,15 10,25 6,30 5,20 10,25 36,5 21,-10 25,5 21,10 36,25 10,10 -25,35 -30,30 0,41 -20,25 -16,0 -15,-10 -21,-10 -15,5 -26,-15 5,-25 5,-30 -11,-10 -15,-5 -25,30 -26,1 -15,0 -5,15 0,30 -21,20 16,25 10,20 -15,11 -25,15 0,20 5,75 11,56 21,60 16,75 1,51 -20,60 0,15 -26,51 -20,30 11,20 51,-30 10,20 -31,20 -10,25 6,30 26,20 25,5 0,20 -15,31 -41,10 -20,-5 -26,10 -10,25 0,41 11,30 -15,5 -5,10 10,15 25,-10 36,5 16,25 16,30 15,35 16,10 20,10 31,10 31,14 11,21 -11,15 -4,40 20,20 0,20 -15,30 -15,11 -21,-15 -25,15 -15,25 15,45 21,20 31,25 10,10 16,10 46,55 57,55 36,15 72,20 62,4 46,-10 46,-15 26,-6 15,30 11,36 21,30 20,20 16,10 26,25 36,19 20,20 21,20 26,10 10,10 11,40 36,15 5,20 20,-10 11,-10 -11,-15 -15,-15 -26,-5 0,-20 15,-10 51,0 62,9 41,-5 26,-15 25,-6 21,5 31,15 41,35 21,20 31,40 15,40 11,25 0,51 -36,10 -25,25 -10,46 0,45 6,30 20,5 21,-25 -6,-25 -5,-21 20,-35 31,-25 15,-15 21,-1 25,0 41,-5 26,10 26,20 21,25 -16,30 -20,50 -15,41 21,-5 20,-21 15,-30 16,-10 20,-10 31,20 15,15 41,-1 26,5 26,10 31,-10 25,25 32,60 -5,25 -41,31 -41,30 -31,-5 1,30 0,21 -31,35 -25,51 0,50 21,-5 30,-51 10,-10 41,-5 31,0 31,14 16,10 41,-10 -31,-30 -36,0 -42,-15 -15,-15 15,-25 26,-15 36,10 31,25 20,20 21,0 15,-16 0,-10 20,-5 11,35 11,45 26,46 51,50 21,14 11,41 15,20 26,-1 31,10 20,-5 10,10 -10,40 16,31 16,15 20,-1 31,-5 20,-5 0,-20 -15,0 -52,-20 5,-20 16,-15 -6,-20 -10,-5 0,-10 10,-10 15,-16 31,-25 36,-20 25,-11 41,20 16,15 31,40 16,35 5,15 5,36 6,30 5,75 -4,81 21,55 10,30 31,20 31,40 62,30 41,20 26,20 31,35 1,25 30,5 31,9 36,5 10,5 16,-5 15,0 11,10 25,20 36,-5 21,-1 20,5 16,30 20,15 31,-10 36,-20 31,4 41,0 46,-15 41,-26 31,25 41,0 -57,-40 -16,-25 21,-40 45,-26 31,-10 41,20 6,25 26,65 -6,-75 10,-15 26,-16 41,-10 87,-6 67,25 30,-16 -5,-40 -41,-24 -77,-5 -92,6 -72,-5 -82,-4 -77,-5 -41,26 -41,5 -21,-30 -5,-25 -11,-40 10,-21 5,-15 0,-30 -11,-40 -10,-30 0,-30 15,-16 20,-5 -5,-15 -31,-20 -41,-25 -26,-9 -46,-10 -51,-10 -57,-25 -36,-30 -5,-20 -21,5 -25,36 -41,5 -46,1 -52,-5 -10,-5 -21,-10 -15,-25 -6,-60 9,-146 -16,-51 -42,-140 -31,-55 -26,-45 -41,-66 -6,-35 0,-15 -5,-20 -21,-5 -16,-45 -31,-65 -36,-70 -31,-50 -6,-61 -6,-45 0,-20 5,-35 20,-26 5,-25 -15,-20 -6,-25 -10,-25 -5,-45 -1,-15 -5,-31 0,-60 -11,-60 -11,-10 -10,-20 5,-21 5,-35 -5,-30 -11,-25 -10,-35 5,-20 -6,-41 0,-40 -26,-65 -16,-65 -11,-56 -26,-30 -21,-50 -10,-10 -26,-15 -10,-20 -16,-20 -15,0 -21,-15 -16,-35 -21,-50 -31,-70 -21,-75 -46,10 -52,-40 -5,-20 25,-40 11,-16 -16,-10 -51,11 -36,15 -15,25 -5,31 0,40 -15,35 -25,5 -26,-15 -21,-25 -36,-29 -31,-46 -36,-24 -47,-35 -15,-35 -11,-16 10,-15 21,5 15,0 16,-10 20,-25 25,-21 -5,-25 -26,-5 -30,-9 -37,-25 -10,0 -46,-20 -31,-40 -21,-25 -5,-25 5,-15 10,-11 10,10 6,26 15,20 36,-1 31,10 20,-15 5,-40 10,-36 15,-20 21,-10 41,0 31,10 25,-1 31,20 11,25 26,50 21,51 20,15 15,-26 -25,-35 -21,-50 -11,-25 0,-20 10,15 26,25 21,5 5,-25 -11,-15 -15,-30 -6,-21 -15,-20 -26,-40 0,-25 -16,-25 -10,10 -15,10 -11,1 -10,-5 -16,-56 -31,-45 -36,-25 -41,-25 -36,-35 -16,-45 -16,-40 -31,-30 -31,-15 -51,26 -21,-15 -20,-20 -21,-20 -41,0 -15,-10 -26,-30 -52,-25 -41,-9 -51,5 -46,25 -57,-9 -72,-10 -61,-20 -46,-4 0,-10 10,-36 -6,-25 -5,-15 -21,-15 -10,-10 -36,-10 -5,-20 10,-5 25,-5 26,0 26,-10 25,-21 15,-30 26,-35 15,0 31,4 0,-10 -10,-10 -26,-10 -26,6 -10,15 -20,10 -16,-10 -31,0 -36,1 -15,-21 5,-15 46,-25 31,-5 30,-16 10,-10 21,-10 15,10 21,5 20,0 67,-16 15,-15 0,-15 -10,-40 -16,-15 -10,-15 15,-21 10,-5 5,-25 -11,-50 -16,-80 -26,-81 -16,-30 -25,-10 -26,-30 15,-10 21,-10 20,-15 -5,-51 -11,-50 -21,-30 -10,-40 -21,-30 -5,-15 20,-5 15,5 26,-11 -10,-35 -26,-35 -26,-10 -26,0 0,-15 10,-35 -16,-25 -41,-35 -46,-20 -46,6 -36,10 -46,5 -21,-10 15,-15 5,-40 -31,-15 -36,10 1,25 -36,26 -16,-15 -31,-35 -30,-5 10,40 5,10 11,20 -5,30 -41,1 -36,-30 20,-46 -36,6 -36,-20 -26,10 -15,15 -10,20 -21,-5 5,-20 21,-35 10,-15 0,-20 -16,-30 -26,-20 -20,-20 -11,-56 -36,-9 -72,-20 -31,5 -20,-15 -11,-25 -5,-15 0,-20 5,-15 10,-25 -6,-26 -15,-20 -11,-20 -20,-10 -26,1 -10,0 5,-15 10,-31 0,-25 -21,-20 -26,-20 -5,-20 -5,-15 -16,-15 -5,-10 0,-20 15,-5 21,5 10,15 21,5 15,-1 26,-5 15,0 26,10 10,30 21,35 31,15 31,20 21,0 20,-5 10,-25 -26,-14 21,-7 20,-10 5,-15 -15,-15 46,-35 20,-1 15,-25 0,-25 -5,-35 25,-26 46,5 47,10 25,-15 20,-26 21,-25 20,-40 20,-31 10,-35 5,-45 -15,-15 -21,-10 -5,-20 -16,-30 -5,-30 -11,-26 10,-40 10,-15 21,-5 15,15 26,20 36,-1 41,5 21,25 31,30 51,20 62,0 81,-56 52,-31 35,-10 52,5 41,-1 35,-20 41,-36 26,-20 10,-25 5,-25 15,5 26,-11 20,-30 20,-20 21,-26 15,-40 10,-45 30,-11 36,-20 26,-15 10,-35 4,-41 26,-30 25,-5 31,-11 21,-10 30,-20 31,-20 56,-11 72,10 87,4 83,10 66,24 78,20 66,15 47,45 36,55 47,95 47,60 56,30 52,25 51,19 41,0 31,-20 26,-5 30,-6 31,-15 46,-36 61,-50 56,-41 87,-21 118,-41 97,-26 41,-15 5,-25 15,-20 16,5 25,-1 36,0 52,20 36,5 30,-21 51,-20 46,-10 46,-21 57,-5 36,10 67,9 36,15 56,25 36,-1 46,-5 26,0 26,15 26,20 36,25 30,10 36,4 41,-5 77,-1 67,0 10,-15 41,5 26,10 16,20 31,14 51,15 72,15 67,14 36,15 36,10 51,5 51,-6 57,-5 30,5 16,30 31,25 62,25 36,29 51,10 47,5 25,5 26,-6 36,20 20,5 37,20 20,10 46,0 21,10 31,4 31,5 30,10 42,35 159,34 139,24 36,0 46,-5 30,-15 36,-16 26,-15 35,-10 52,9 10,-10 51,15 98,55 72,29 47,35 51,15 31,0 20,-26 16,-15 10,0 21,15 5,20 31,-5 10,0 5,20 31,-5 15,-16 31,-40 20,-20 26,-6 20,-15 -26,-20 -21,-25 -10,-35 -16,-25 -36,-15 -46,-9 -41,20 -20,20 -26,15 -36,-19 -36,-10 -26,-10 -15,-15 10,-30 15,-21 62,-5 36,-10 30,-11 31,-20 36,-25 20,-21 31,-20 20,-50 15,-26 20,-15 51,-56 31,-10 41,0 5,-15 5,-10 -16,-15 0,-121 -16,-60 -6,-61 5,-50 46,-36 25,-15 57,-15 61,29 37,30 72,35 61,-10 46,-6 46,-10 21,-31 4,-35 0,-45 21,-10 66,-16 46,-10 36,10 26,4 41,25 31,30 57,20 46,15 10,10 1,45 0,55 11,36 26,50 -21,20 -41,20 -10,26 1,45 -36,5 -62,-15 -46,16 -46,20 -36,26 -35,10 -26,0 -10,-15 -11,-40 -36,10 -25,31 -15,50 -21,35 -10,1 -25,35 -36,25 11,20 15,46 26,-11 21,15 15,40 31,25 47,35 31,50 57,75 20,15 41,-45 46,-36 41,-20 36,-10 30,-11 10,-30 -20,-50 -1,-30 5,-26 20,-60 10,-106 15,-75 20,-36 5,-30 25,-10 57,20 31,19 10,41 21,60 42,25 36,5 61,-6 57,20 0,35 6,60 15,15 21,30 15,30 16,26 11,35 20,40 -10,40 -4,35 15,20 26,20 10,0 0,40 6,26 0,25 21,0 4,-26 10,-55 10,-15 26,-15 25,-16 57,-25 0,-20 -31,5 -36,10 -31,26 -41,5 -36,-5 -5,-25 15,-35 0,-66 -11,-30 -5,-45 -6,-25 26,-36 20,-35 20,-20 16,-10 31,14 25,15 16,25 5,36 -9,55 31,30 25,10 10,-10 -15,-25 -16,-25 0,-20 15,-6 16,15 36,20 36,35 41,20 46,-25 36,-36 5,-10 31,-10 30,-26 31,-35 25,-5 21,-5 20,-1 94,110 25,20 47,10 25,-20 57,-6 112,-16 21,10 56,10 5,-35 -82,-10 0,-20 -31,5 -77,21 -51,-15 -41,-4 -62,0 -10,-20 -16,-25 -10,-35 -16,-10 -56,-25 -26,15 -71,51 -46,21 0,15 -20,20 -16,15 -40,36 -42,-10 -15,-45 -67,-30 -26,-5 -15,-20 -16,-25 -21,-35 -26,0 -35,-15 -47,1 -56,-5 -26,-15 0,-45 -6,-35 -5,-25 -26,-20 -31,0 -30,20 -36,26 -20,15 -31,15 -20,10 -16,-15 10,-30 10,-10 -15,-45 -16,-25 -31,-30 -36,-20 -21,-25 -10,-35 5,-25 5,-26 -11,-35 -26,-50 41,-10 25,-26 -41,-19 -56,-20 -52,-20 -56,-15 -57,-14 -26,-20 -62,-20 -40,5 -31,6 -21,5 -20,15 -26,10 -25,0 -57,16 -40,30 -16,36 -4,35 0,30 -26,10 -15,-5 -47,-34 -67,-40 -61,-20 -72,6 -72,40 -40,36 -16,35 -25,26 -10,30 16,45 5,40 1,61 -5,45 -20,30 -31,41 -30,30 -31,20 -25,41 -46,25 -51,26 -41,15 -77,41 -46,25 -71,51 -52,26 -97,21 -46,-5 -41,-15 -52,-10 -41,-35 -41,-19 -46,-20 -16,-20 -5,-40 -6,-41 10,-35 20,-30 -15,-25 -16,0 -25,5 5,-20 25,-31 31,-25 61,-26 51,-40 41,-15 46,-36 41,-15 82,-41 51,-41 10,-10 20,0 16,10 41,20 62,4 66,-5 31,-10 31,-11 15,-25 36,-36 9,-50 -5,-60 -1,-45 26,-56 15,-35 50,-91 36,-61 25,-65 19,-131 46,-121 20,-41 46,-45 30,-71 41,-61 56,-15 15,-25 -30,-20 -36,-15 -28,7 -29,38 -61,46 -26,41 -15,25 -30,40 -25,51 -21,60 -20,61 -30,81 -35,110 -25,51 -40,71 -296,283 -36,1 -15,5 -31,25 -51,41 -25,15 -41,20 -56,41 -46,16 -31,20 -10,0 -36,35 -61,46 -61,36 -62,5 -41,-25 -57,-14 -72,-30 -25,-15 -57,-20 -87,-29 -62,-5 -62,6 -51,10 -20,25 -10,41 -10,30 -41,35 -46,21 -51,40 -46,6 -41,5 -20,20 -41,26 -62,0 -87,-19 -92,0 -31,-10 -21,-9 -5,-26 10,-5 31,-5 56,-25 26,-1 5,-15 0,-20 -6,-30 0,-20 10,-30 15,-16 31,-5 21,-5 10,-15 5,-15 20,-21 -10,-15 -11,-30 -10,-15 -21,-10 -41,1 -36,0 -66,15 -46,11 -21,0 -20,15 -46,11 -36,10 -36,5 -11,-15 -41,-20 -20,16 -36,20 -31,10 -35,0 -16,-15 -21,-35 -20,-15 -21,-15 -16,-15 -20,-30 -26,-4 -46,0 -16,-5 -25,-15 -21,-20 -41,-15 -41,-30 -31,-10 -26,-14 0,-16 25,-5 26,-10 36,-25 20,-6 16,0 20,-5 31,-25 20,-5 31,-11 0,-25 5,-15 15,-15 25,-15 31,-21 21,-5 10,-30 -11,-35 -5,-35 -26,-41 -26,-40 -42,-60 -26,-25 -25,-25 -42,-9 -30,-5 -41,15 -67,21 -25,10 -47,-5 -46,-5 -31,16 -41,-5 -25,0 -36,11 -31,15 -31,0 -25,-5 -6,-25 -5,-25 5,-25 10,-30 20,-26 46,-81 40,-70 36,-51 36,-40 35,-11 31,5 26,5 26,0 25,-5 41,-31 25,-25 31,-16 31,-10 31,-5 15,-10 10,-20 15,-36 10,-35 -15,-15 -26,30 -15,31 -36,20 -25,25 -21,11 -35,35 -41,31 -46,-5 -47,-15 -51,15 -46,41 -30,56 -46,65 -50,86 -16,5 -25,51 0,30 1,45 5,40 6,51 -5,30 -26,20 -36,11 -20,5 -15,15 15,15 11,15 20,5 10,5 0,15 -4,35 -5,25 -20,41 -36,60 -41,31 -35,50 -56,51 -51,41 -61,66 -36,35 -71,66 -56,56 -71,121 -20,30 0,30 -31,31 0,15 -56,20 -56,1 -36,0 -46,-10 -52,-4 -20,-5 -11,-15 10,-26 -5,-25 -10,-20 -16,-20 -15,-5 -16,-15 -15,-20 -21,0 -15,-20 -11,-25 -15,-10 -31,-4 -11,-26 -10,-30 -21,-25 -26,-5 -20,6 -10,35 -10,30 -20,26 -26,0 -21,-25 -26,-25 -25,-25 -16,10 -10,10 -26,-5 -30,10 -62,1 -46,0 -26,-25 -5,-15 -41,-25 -21,-30 -11,-20 -10,-40 -16,-10 -15,-15 0,-10 -21,-20 -10,-25 -52,-70 -36,-45 -27,-55 -26,-41 -15,-30 -31,-35 -16,-50 -21,-30 -10,-40 10,-20 5,-25 5,-21 20,-30 5,-15 0,-35 15,-10 15,-21 5,-25 -10,-25 20,-10 5,-20 -31,-45 -31,-15 -36,-25 -51,-5 -47,-10 -10,-20 10,-30 25,-50 5,-41 0,-30 15,0 5,-25 -10,-25 10,-20 20,-31 -15,-25 -21,-5 -10,-5 -16,-25 -15,-15 -26,-20 -36,-4 -41,10 -20,10 -26,-5 -5,-20 -16,-30 -16,-50 0,-40 15,-31 15,-25 31,-40 5,-26 -1,-25 -15,-40 -16,-45 10,-45 25,-21 31,-20 20,-20 36,-26 46,-20 26,-31 15,-30 5,-35 15,-40 10,-36 -26,-5 -5,21 -10,20 -20,70 -15,36 -26,20 -35,20 -31,21 -51,25 -31,36 -5,25 1,55 21,55 -10,46 -20,35 -16,20 -20,36 5,35 1,25 -11,10 -15,5 5,20 -4,41 -16,5 -36,0 31,30 31,5 16,20 36,60 21,10 41,15 46,9 16,15 5,31 -5,20 -5,30 -15,25 -5,51 0,20 16,55 41,40 37,25 31,45 5,55 -15,66 -9,45 26,75 5,41 52,90 57,95 62,75 21,20 0,35 21,20 15,5 16,25 26,65 0,31 -15,40 -20,5 -16,-20 -15,25 -15,21 -41,10 -41,5 5,-30 -16,-30 -15,-25 -26,-30 -26,-20 -21,-25 -36,-45 -31,-60 -68,-90 -10,-41 -21,-20 -31,-40 -31,-30 -26,-30 -31,-25 -46,-24 -52,-35 -57,-45 -31,-35 -31,-25 -46,-35 -57,-40 -67,-40 -77,-34 -98,-55 -67,-30 -61,-15 -72,-19 -31,-20 -10,20 10,20 -5,40 -10,26 -30,60 -36,46 -35,35 -51,41 -46,20 -36,41 -46,25 -41,6 -46,20 -21,5 -15,-25 5,-15 -5,-15 -11,-20 -25,25 -21,26 -20,10 -61,10 -62,6 -56,10 -62,11 -41,10 -30,10 0,15 25,20 42,40 -10,30 0,86 6,10 26,25 0,111 1,35 5,40 -10,46 -15,50 -20,40 -25,46 -15,50 -5,20 0,15 15,20 -5,11 -15,20 -35,76 -15,60 -5,30 5,30 11,51 5,30 16,40 21,15 26,15 25,15 21,25 21,20 31,15 36,19 36,10 31,35 51,15 5,20 26,10 16,25 5,25 31,20 10,35 1,30 -10,36 -16,15 -35,10 -26,0 -26,-14 -26,-25 -36,-10 -15,20 -25,30 -10,21 -5,30 -16,20 -20,0 -10,-5 -21,15 -35,26 -47,-10 -20,5 -10,15 -10,16 -10,40 -5,30 10,15 26,0 20,10 11,35 10,30 11,35 0,20 26,20 46,15 5,15 1,20 -5,15 -31,11 -31,10 -25,20 -26,0 -31,-14 -21,-30 -30,-5 -21,-25 -21,-15 -20,5 5,20 26,20 5,20 -5,15 1,66 26,55 31,35 41,25 41,4 36,10 26,30 26,20 10,30 6,25 15,25 -15,16 -5,15 15,25 26,15 26,20 16,35 25,5 21,10 26,25 20,4 57,0 10,10 21,25 26,55 26,20 10,20 -5,20 -20,6 -16,15 -15,30 -25,25 -31,21 -31,-5 -30,10 -16,-10 -20,5 -10,21 -5,15 20,15 21,30 0,15 -20,-5 -26,-15 -36,-30 -21,-30 -16,-30 -5,-25 10,-40 10,-36 -16,-25 -15,-20 -26,-25 -21,-15 -15,-15 -36,-30 -11,-15 -20,-5 -31,6 -46,5 -26,10 -15,15 10,25 16,51 16,30 0,30 -26,5 -15,-5 -26,10 -10,11 1,30 20,20 16,10 25,10 16,20 5,20 21,25 21,15 36,25 41,30 36,9 10,20 1,21 -10,65 -5,15 10,20 6,20 15,20 16,30 5,20 5,16 -15,30 -15,5 -16,5 -5,15 0,20 6,20 -5,26 -26,0 -15,-5 -16,-10 -25,-10 -41,15 -5,21 -21,15 -36,15 -41,6 -41,-46 -26,-4 -82,-10 -20,5 -5,25 -15,11 -26,10 -5,15 0,45 -10,-5 -11,-50 -20,-20 0,-10 -11,-20 5,-25 -5,-15 -10,-10 -6,-15 -25,-15 -37,-20 -30,-10 -11,-15 0,-10 -15,-30 -6,-15 -5,-10 -10,-10 -11,-5 -10,-10 -5,-10 -16,-10 5,-10 -5,-15 -5,-10 -16,-10 -10,-10 -5,-15 -10,-5 -11,-10 -20,-5 -16,0 -10,-10 -15,-10 -11,-15 -5,-10 -16,-15 -15,-5 -15,0 -21,15 -26,-10 -10,-25 -21,-10 -15,-5 -10,-30 -21,-40 -21,-30 -21,-20 -20,-15 -11,-5 -10,-10 -15,-5 -11,-10 -25,-5 -16,-9 -21,-5 -10,5 -15,0 -15,5 -16,-10 -10,-10 0,-10 -6,-10 -10,-5 -31,0 -15,-5 0,-15 -5,-10 -6,-15 0,-15 -10,-15 -16,-15 -26,-35 -36,-40 -20,-15 -16,-15 -15,-15 -21,-10 -57,-25 -56,-25 -57,-14 -36,-5 -26,-5 -25,0 -31,5 -36,21 -46,20 -40,36 -26,10 -15,10 -5,15 0,10 -16,6 -10,-5 -15,0 -26,-15 -11,-20 -20,-10 -16,-20 -15,-10 -31,-10 -10,0 -31,-5 -21,-10 -15,-30 -6,-35 5,-30 -21,-40 0,-15 -5,-26 -16,-40 -41,-40 -26,-25 -21,-20 -41,-15 -20,-19 -21,-20 -21,-10 -15,-5 -36,0 -21,-5 -10,-5 -15,-15 -6,-10 -5,-10 -10,-25 -16,-15 -15,-5 -36,0 -5,-10 5,-20 -6,-10 -10,-15 -15,5 -21,5 -10,-10 0,-25 5,-10 -6,-35 -10,-35 -21,-51 -26,-55 -37,-65 -31,-50 -15,-20 -31,-20 -21,-30 -16,-20 -20,5 -21,-10 -10,-20 -21,-50 -26,-35 -15,-20 -52,-25 -5,-25 -21,-10 -26,-25 -46,-40 -88,-60 -67,-45 -67,-39 -51,-25 -67,-25 -62,-20 -67,-14 -46,-10 -46,-5 -88,-4 -46,-8 -41,-7 -36,-10 -21,-25 0,-15 16,0 25,20 57,30 41,0 51,-1 62,5 21,2 20,3 26,0 20,-6 5,-10 -10,-40 -11,-20 -5,-10 -5,15 0,15 -5,15 -25,11 -26,0 -26,-5 -25,-5 -16,-20 -5,-10 0,-15 30,-30 0,-96 -26,-20 -5,-10 -11,10 -5,15 -5,25 1,21 -5,15 -5,20 -10,25 0,35 -21,15 -15,-9 -10,10 -36,5 -21,-25 -25,-5 -21,0 -5,-15 0,-10 5,-10 -6,-10 -5,-25 -26,-10 -20,-20 -5,-15 15,-20 10,-31 10,-25 15,-20 21,-5 25,-31 20,-15 26,-5 10,-30 5,-10 -5,-26 20,-10 31,-15 25,-20 10,-15 16,4 20,-15 -10,-15 -15,5 -16,0 -10,11 -31,25 -20,15 -10,-25 -26,0 0,15 -15,21 -15,30 -21,10 -31,10 -5,-20 0,-30 -16,-85 10,-26 10,-15 5,-30 -10,-15 -1,-30 26,-21 10,-15 -10,-20 -21,10 -15,16 -10,10 5,15 0,10 -10,20 -10,0 0,20 -5,20 -10,11 -5,15 5,10 0,25 -15,45 -5,36 -10,40 -15,25 -26,0 -30,-5 -21,-4 -5,-15 0,-26 -1,-25 -5,-30 5,-25 -5,-25 -11,-10 -10,0 0,25 1,35 -5,30 -11,16 6,25 5,30 16,20 25,15 11,10 16,50 -5,20 -16,10 -10,-10 -36,-30 -26,-15 -15,1 0,15 10,10 21,25 46,35 36,35 26,40 37,40 20,15 11,0 5,15 -10,5 -16,20 -41,5 -36,6 -76,25 -82,36 -71,61 -46,65 -30,61 -10,51 10,50 16,10 15,5 21,15 20,-1 26,10 31,20 10,10 11,25 -5,10 -26,-14 -26,5 -10,-10 -10,-5 -16,-10 -10,-10 -36,5 -25,0 -26,-5 -16,-5 -10,-10 -10,1 -16,0 -10,5 -20,-5 -31,0 -21,5 -20,0 -10,-5 -21,-10 -5,-10 -21,-4 -10,5 -10,10 -16,5 -30,0 -26,-10 -15,0 -6,-10 0,-10 10,-10 11,-15 25,-10 15,-10 15,-3 11,-3 15,-15 10,-20 26,-46 20,-60 25,-61 30,-55 41,-86 25,-61 35,-95 35,-96 41,-91 35,-106 50,-131 55,-136 40,-132 10,-35 46,-116 35,-106 25,-85 9,-71 10,-50 -5,-56 -1,-35 0,-35 -10,-35 -6,-25 -5,-15 -16,-15 6,-10 -1,-21 0,-20 -15,-15 -16,-20 -31,-20 -15,-10 -15,-7 -16,-8 0,-15 10,-40 5,-15 -6,-20 0,-35 5,-26 -10,-30 -6,-30 -15,-25 -21,-30 -17,-19 -27,-33 -23,-28 -11,-30 0,-61 -11,-17 -10,-18 -10,-5 -16,-10 -10,-25 -11,-10 -10,-30 -16,-45 -21,-20 -5,-30 15,-10 5,10 37,20 41,30 20,9 11,51 26,25 10,30 21,10 36,35 161,200 10,30 16,0 16,55 -16,10 -15,6 -15,10 5,10 25,0 16,4 20,0 11,-5 5,10 20,15 6,15 10,20 15,5 11,0 10,10 37,106 5,20 15,0 11,20 5,10 0,20 5,10 16,20 21,10 10,25 16,55 10,15 11,0 30,15 6,15 10,5 -15,20 0,31 20,14 16,15 5,26 6,15 15,15 11,10 20,30 11,15 5,15 -5,15 0,30 21,20 10,0 26,5 15,10 11,30 20,15 26,35 6,20 36,40 331,355 15,-5 57,20 15,-15 5,-21 -10,-20 -32,-50 -56,-60 -21,-35 -5,-10 -6,-15 -15,-5 -31,15 -31,-14 0,-86 -11,-5 -10,-5 -21,-10 -20,0 -10,-5 -11,0 -20,-20 -6,-15 5,-20 10,-20 5,-25 -20,-30 -11,-10 -25,-20 -16,-10 -10,-20 -6,-35 -5,-15 -5,-16 -21,-20 -15,-9 -21,-5 -15,-15 -11,-10 0,-20 -5,-16 -16,-10 -25,-4 -6,-26 -20,-30 -11,-25 -5,-25 -5,-10 -6,-20 -5,-15 -21,-10 -20,-20 -11,-20 -10,-35 -16,-30 0,-15 -10,-15 -11,-10 -41,-116 -37,-40 -15,-10 -32,-120 -10,-25 -6,-10 -5,-21 0,-40 5,-30 15,-55 5,-16 0,-15 -31,31 -20,25 -15,30 -21,10 -21,-20 -20,-25 -11,-15 -20,-15 -11,-10 -20,-9 -21,10 -25,40 -21,5 -5,-25 5,-30 0,-15 10,-35 -5,-31 -11,-55 -26,-25 -15,0 -21,5 -20,26 -26,-20 -20,5 -16,10 -7,-9 -8,-11 15,-40 10,-26 10,-35 5,-25 5,-35 -1,-25 -5,-21 -5,-30 -11,-30 -26,-55 -11,-25 -15,-25 -5,-10 0,-15 -36,-25 -26,-25 -10,-5 -16,-25 0,-15 -5,-25 -6,-21 -12,-7 -19,-12 -15,-5 -53,-151 -25,-5 -10,0 -16,-15 -16,-20 -20,-30 -26,-20 -26,-15 -36,-35 -46,-35 -62,-14 -62,-5 -41,10 -30,11 -41,25 -36,20 5,20 5,11 11,4 10,-5 10,5 11,10 0,25 -10,16 -11,5 -30,0 -16,-5 -20,-10 -6,-10 -15,-20 -5,-15 0,-20 -6,-10 -15,-15 -5,-20 -11,-20 -5,-25 10,-21 -21,-10 -10,-10 -16,-15 -10,-15 -15,-20 -11,-10 10,-15 16,10 15,0 10,-20 10,-25 5,-41 20,-90 15,-86 -1,-70 -11,-76 -15,-60 -16,-40 -36,-50 -21,-36 -11,-50 -26,-65 -11,-35 -20,-25 -16,-10 -15,-10 -5,15 -11,0 -20,-5 -5,-25 5,-10 0,-25 -6,-20 -10,-56 -11,-30 -16,-45 -26,-45 -25,-15 -42,-40 -15,-20 -11,-20 -5,-25 -5,-15 -21,-5 -10,-10 0,-30 -11,-66 -16,-20 -31,0 5,-15 0,-15 5,-30 -5,-20 -5,-25 -6,-15 -15,-15 -26,-30 -26,-10 -20,-5 -21,0 -15,-5 -5,-15 -11,-10 -10,-15 -21,-15 -25,-10 -6,-10 0,-15 -20,-5 -16,-20 -5,-10 -10,-10 -26,0 -11,-25 -25,-30 -16,-20 -16,-15 -30,-10 -26,-30 -62,-55 -47,-35 -31,-15 -36,-20 -25,-14 -16,-15 -15,-10 -11,-10 -20,-5 -21,-10 -20,-5 -11,-10 -25,-5 -16,-10 -15,-5 -42,-20 -20,-20 -16,-10 -25,0 -6,-20 11,-15 -16,-5 -10,-15 -5,-10 -6,-15 -25,-5 -21,0 -10,-5 -16,-10 -5,-10 -20,-4 -11,5 -5,15 -20,10 -5,-15 -16,-5 -5,-15 -10,-15 10,-25 -6,-10 -20,5 -21,-15 -36,-35 -15,-30 -21,-15 -5,-30 5,-16 -16,-15 -5,-10 -16,-15 -25,1 -21,5 -10,-25 -5,-10 -11,-5 -15,-10 -21,-25 -5,-15 -16,-5 -15,-10 -15,0 -26,-20 -16,-15 -15,-20 -5,-15 -26,0 -10,-5 -16,-5 -5,-25 5,-25 -6,-36 -15,-10 -31,-4 -21,-15 -31,-25 -35,-5 -11,-10 -15,-5 -5,-20 -16,-20 -10,-10 -47,0 -10,-10 -21,-30 -10,-25 -5,-15 5,-10 -11,-30 5,-15 15,-26 11,-20 -16,-10 -15,-20 -11,-20 -10,-20 -11,-30 -15,-25 -16,-20 -26,-20 -25,-10 -16,-5 -25,10 -11,-15 -10,-20 -11,-10 -20,-20 -31,-15 -16,-15 -10,-15 10,-15 16,-5 10,-5 5,-20 0,-16 -6,-20 -25,-15 -26,-9 -31,-36 -31,-50 -31,-35 -16,-25 -10,-15 -6,-20 -5,-25 -10,-15 -16,-15 -5,-20 -5,-15 -21,-25 -16,-15 -10,-15 -10,-20 0,-15 -31,-41 -11,-10 -10,-10 -16,-15 5,-10 16,-15 -21,-45 -16,-30 -10,-10 -16,-15 -5,-30 -10,-20 -11,-20 -21,-20 -20,-15 -21,-15 -36,-10 -20,-20 -16,-20 -10,-25 20,-5 5,-26 -5,-15 -6,-25 -5,-15 -10,-5 -21,-15 -15,-45 -6,-25 -21,-30 -10,-10 -20,-15 -42,-30 -26,-20 5,-15 -15,-25 -16,-20 -5,-10 -20,-15 -16,-20 -10,-20 -26,-10 -52,-30 -31,-15 -15,-20 -16,-10 -15,0 -21,-10 -15,-20 -16,-15 -10,-10 0,-20 -10,-20 -21,-20 -16,-15 -36,-20 -20,-15 -31,-10 -16,0 -30,5 -21,-10 -26,-30 -21,-35 -15,-15 -16,-15 -10,0 -15,-5 -11,-15 0,-10 10,-30 -5,-20 -10,-10 -26,-15 -16,-20 0,-20 -5,-30 -11,-31 -5,-10 -10,-15 -31,-25 -16,-15 -5,-10 -5,-20 0,-15 -21,-10 -10,-10 -16,-5 -10,-10 -5,-15 -10,-5 -21,-15 -16,-10 -20,-15 -16,5 -10,6 -10,-5 0,-26 5,-20 5,-10 -10,-5 -47,-45 -62,-60 -26,-25 -10,-10 -16,0 -10,5 -15,6 -36,-20 -26,-25 -5,-15 -16,-15 -20,0 -21,-5 -10,0 -15,-5 -1,-10 26,-10 10,-16 -5,-10 -10,-10 -11,-25 -5,-30 -16,-20 -5,-15 -21,-20 -31,-30 -20,-15 -21,-10 -31,-5 -10,-10 -5,-20 -16,-5 -20,-10 -16,-25 -26,-30 -10,-10 -16,-20 -15,-15 -16,-25 -31,-10 -15,-20 -10,-5 -21,-20 -21,-40 -10,-20 -11,-30 -5,-25 -11,-30 -5,-41 -5,-20 -11,-30 -15,-25 -26,-25 -16,-20 -20,-15 -16,-10 -20,-10 -16,-15 -10,-10 -11,-15 -10,-5 -20,0 -21,-20 -5,-10 -6,-20 -15,-30 -16,-30 -15,-25 -21,-25 -21,-15 -41,-35 -41,-45 -21,-25 -16,-30 -15,-10 -11,-20 6,-11 5,-20 -11,-15 -26,-10 -15,-5 -16,-20 -15,-5 -26,1 -10,5 -20,0 -11,-10 -5,-15 -5,-20 0,-26 -6,-20 -5,-20 0,-15 15,-10 10,-5 6,-10 5,-20 -6,-20 -5,-21 -16,-15 -10,-15 -16,-30 -10,-40 -16,-35 -15,-30 -21,-25 -10,-15 10,-20 15,4 16,5 25,5 16,0 20,-5 21,-15 45,-51 46,-66 46,-75 50,-121 51,-91 35,-91 40,-106 15,-56 15,-35 0,-30 5,-20 0,-31 5,-15 0,-10 10,-20 0,-15 -11,-20 -5,-20 -10,-20 -11,-15 5,-20 10,-16 11,-5 -6,-15 0,-20 5,-15 0,-30 -10,-20 -16,-15 5,-31 5,-15 5,-10 -21,-25 -10,-25 -10,-15 -6,-20 -10,-25 -10,-20 -6,-35 0,-21 -5,-20 -11,-25 0,-15 5,-10 0,-15 -10,-40 -6,-25 -15,-36 -11,-35 5,-25 5,-15 5,-20 -5,-25 -21,-10 -15,-25 -11,-20 0,-41 15,-30 -16,-25 -15,-20 -10,-20 -1,-25 0,-11 10,-15 -10,-25 -10,-15 -6,-20 5,-20 -5,-20 -31,-30 -21,-20 -20,-20 -11,-5 -20,0 -15,5 -16,-5 -10,-40 5,-10 5,-15 10,0 5,-16 -10,-20 -11,-10 -5,-15 5,-20 10,-5 10,-15 11,-10 -1,-25 -10,-5 -10,-10 -11,-10 0,-15 -5,-21 -21,-9 -15,-15 -10,-16 -16,-35 -16,-20 -20,-20 -5,-10 -6,-10 0,-30 -10,-15 -11,-10 -10,-20 -5,-25 -6,-25 -10,-10 -10,-26 -16,-20 -21,-15 -15,-5 -15,-4 -21,-15 -5,-10 -5,-21 5,-10 10,-10 5,-10 0,-20 -6,-20 -20,-50 -6,-20 -10,-26 0,-15 20,-10 10,5 16,0 5,-10 -5,-10 -11,-20 -10,-25 -16,-10 -10,-15 -10,-20 5,-10 10,-11 20,0 21,-10 0,-10 -10,-10 -16,-15 -26,-15 -10,-10 0,-10 20,-51 10,-15 0,-10 -5,-10 -21,-5 -10,-10 -11,-40 -15,-60 -16,-15 -10,-5 -5,-10 0,-10 10,-10 15,-6 5,-20 -10,-10 -11,-5 -5,-10 -15,-10 -5,-10 -1,-30 -5,-15 -5,-20 0,-25 -6,-25 -10,-10 -10,-5 -21,10 -10,10 -15,0 -11,-20 -15,-30 -6,-25 5,-20 0,-21 10,-30 -5,-10 0,-10 -5,-10 0,-40 10,-15 10,-6 10,5 11,5 5,10 10,10 10,-20 -5,-15 -5,-20 5,-25 -1,-10 16,-15 0,-31 -11,-10 -10,5 -10,6 -11,-5 -20,5 -10,5 -21,0 -20,-10 -26,-20 -5,-25 10,-35 10,-21 20,-10 21,-5 25,-5 10,-15 5,-15 -5,-21 -10,-25 -5,-10 -11,-10 -15,-10 5,-15 10,-20 0,-10 -5,-10 -11,-10 -10,5 -20,5 -11,-15 -5,-10 -10,-15 -11,-10 -10,-10 0,-15 -5,-10 -1,-25 -10,-15 -15,-25 -6,-15 -20,-26 -21,-30 -5,-25 5,-15 5,-10 15,-10 10,-10 10,-5 -5,-15 -5,-26 -5,-25 4,-20 11,5 15,15 21,0 -5,-20 -11,-20 -15,-15 -16,-10 -10,-10 5,-25 10,-6 15,-10 21,-20 5,-10 -11,-10 0,-15 11,0 5,-15 -6,-10 -10,-15 0,-16 -5,-10 0,-15 10,-30 10,-10 5,-15 5,-10 0,-10 -10,-15 5,-16 10,0 5,-10 -5,-15 -6,-10 -15,-15 -5,-15 10,-10 0,-60 -6,-15 5,-11 5,-10 16,-15 15,-5 10,-10 5,-20 5,-36 0,-30 -5,-25 -16,-10 -10,-15 0,-10 15,-20 41,0 15,-11 0,-15 -5,-10 -10,-15 -16,-5 -10,-5 -5,-10 -11,-5 0,-25 -5,-15 -10,-10 -6,-10 5,-15 16,0 10,5 5,-10 10,0 16,-16 -5,-10 -11,-15 -5,-20 5,-10 5,-20 10,-20 0,-20 -5,-11 5,-15 15,-5 5,-20 10,-15 5,-15 0,-25 5,-10 5,-11 15,-15 0,-20 -5,-15 0,-20 5,-15 20,-5 11,-11 0,-10 -1,-15 5,-35 0,-30 5,-20 5,-21 5,-15 -5,-10 -16,-20 0,-10 16,-5 51,0 10,-20 20,-31 16,-30 20,-30 5,-31 35,-65 36,-81 25,-56 30,-70 40,-142 20,-100 20,-56 0,-96 -6,-25 -15,-20 -11,-25 -5,-15 -11,-35 -10,-5 -10,-10 -11,-20 0,-35 10,-36 -5,-15 -16,-25 -20,-30 -21,-35 -10,-20 -22,-116 15,-30 11,-10 15,-20 10,-36 5,-60 -6,-30 0,-26 -10,-4 -5,-6 -6,-10 5,-10 11,-10 5,-20 -11,-30 -10,-35 0,-25 10,-26 10,-35 10,-30 -16,-46 0,-55 -6,-20 -5,-30 0,-30 -11,-20 -10,-16 -15,-15 -1,-20 5,-40 10,-35 -10,-46 -6,-45 -5,-45 -11,-35 -10,-20 -26,-35 -15,-15 -16,-21 0,-15 -5,-25 -1,-30 -10,-20 -10,-25 -21,-25 -36,-35 -67,-50 -42,-35 -20,-25 -6,-20 -5,-26 10,-25 5,-20 5,-10 0,-25 -10,-20 -26,-10 10,-10 15,-31 0,-15 -5,-15 -10,-40 -6,-25 -20,-25 -6,-30 -5,-31 -5,-40 4,-35 10,-40 10,-51 0,-35 -5,-40 -1,-41 -5,-60 -6,-55 -5,-21 -5,-40 -11,-65 -10,-25 -11,-20 -5,-10 5,-11 5,-10 5,-30 -5,-15 -1,-30 -10,-20 -5,-46 -6,-30 -10,-35 -16,-30 -10,-25 -26,-20 -31,-25 -41,-15 -77,-35 -62,-50 -57,-40 -20,-30 -16,-15 -10,-15 -21,-15 -15,-5 -11,-5 -10,-10 0,-20 -16,-15 -10,-5 -15,-10 -11,-25 -20,-30 -6,-25 -16,-51 -10,-25 -5,-20 0,-15 -11,-45 -5,-10 -16,-40 -10,-15 -10,-16 -27,-85 -10,-50 -11,-51 -5,-25 -26,-25 -26,-20 -31,-20 -46,-30 -51,-45 -31,-25 -16,-20 -26,-65 -11,-30 -5,-36 -15,-25 -26,-45 -21,-40 -16,-40 -15,-30 -11,-20 -15,-51 -21,-25 -42,-55 -41,-35 -10,-5 -16,-10 -25,-25 -16,-25 -21,-35 -10,-25 -36,-50 -26,-30 -21,-25 -36,-41 -26,-20 -5,-15 -5,-25 -11,-30 -26,-30 -41,-45 -62,-70 -21,-35 -20,-15 -11,-10 -87,-65 -41,-15 -31,-5 -21,5 -15,20 -10,26 -10,0 -16,-5 -26,-46 -20,-35 -21,-25 -10,-20 5,-10 10,-25 5,-20 -21,-10 5,-31 -5,-15 5,-25 -1,-45 5,-46 10,-60 5,-45 0,-10 -11,-46 -21,-65 -26,-60 -10,-21 -15,-20 -16,-10 -5,-10 -5,-20 -21,-30 -26,-40 -41,-50 -21,-45 -11,-30 -20,-26 -21,-4 -26,-20 -25,-10 -16,-20 -10,-10 -31,-20 -41,-30 -57,-20 -46,-20 -36,-10 -21,-5 -25,-15 -36,-20 -31,-20 -47,-20 -41,-10 -31,-14 -25,-26 -26,-19 -41,-5 -26,-35 -26,-41 -31,-45 -31,-40 -11,-35 -20,-25 -21,-40 -21,-30 -26,-36 -31,-40 -25,-25 -31,-15 -31,-25 -16,-30 -36,-35 -62,-45 -77,-40 -31,-25 -31,-10 -15,-20 -21,-25 -15,-25 -26,-20 -21,-25 -36,-35 -31,-25 -36,-25 -21,-15 -25,-20 -31,-25 -26,-30 -26,-35 -62,-60 -51,-50 -42,-35 -10,-15 -10,-11 -11,-20 -5,-25 -10,-25 -16,-30 -16,-25 -25,-20 -36,-25 -52,-25 -31,-20 -15,-10 -11,-10 -15,-20 -5,-10 -16,-25 -15,-20 -5,-10 -6,-15 -31,-20 -15,-20 -10,-21 -6,-15 5,-15 11,-10 -1,-15 5,-35 -10,-25 10,-56 0,-30 20,-56 25,-65 15,-31 10,-40 5,-40 5,-10 5,-21 10,-35 10,-25 10,-20 16,-26 5,-25 5,-40 -11,-30 -5,-46 -11,-30 -5,-30 -5,-20 -26,-30 -11,-20 -10,-20 -5,-26 0,-35 -6,-35 0,-101 -1,-131 -11,-60 -11,-56 -5,-30 -26,-111 -57,-70 -62,-70 -26,-10 -5,-15 -21,-30 -5,-15 -5,-20 -16,-30 -20,-26 -11,-25 0,-10 -5,-15 -10,-25 -1,-30 5,-30 -5,-26 -16,-45 -20,-15 -21,-15 -10,-10 5,-25 5,-30 30,-56 46,-91 45,-76 41,-96 20,-60 20,-51 25,-81 15,-60 10,-20 5,-25 -5,-16 -15,-30 -6,-25 0,-10 5,-15 0,-40 36,-66 10,-20 10,-31 40,-60 41,-61 56,-106 25,-66 35,-91 31,-70 15,-41 25,-50 36,-66 30,-71 25,-65 5,-16 36,-80 35,-61 20,-56 10,-40 16,-25 15,-31 20,-20 16,-15 10,-25 10,-10 20,-11 26,0 20,5 52,0 10,10 5,15 6,20 15,10 26,10 20,0 0,-10 5,-30 51,-51 10,-20 0,-10 21,-5 20,-16 -46,-15 -16,-10 -30,-4 -21,-15 -31,-5 -15,5 -16,-15 10,-15 16,-41 20,-65 66,-102 66,-55 -26,-5 -20,-25 -137,227 -21,46 -25,35 -30,51 -11,25 -5,20 -15,10 -5,-15 5,-20 25,-40 21,-46 30,-51 56,-91 20,-45 96,-172 41,-86 20,-40 46,-71 51,-66 20,-35 81,-132 102,-166 46,-76 71,-112 20,-50 10,-35 15,-36 31,30 16,41 0,10 15,15 6,40 -21,-5 -21,0 -61,56 -76,116 -127,192 -5,31 10,25 -45,30 -5,20 20,26 36,30 36,9 21,10 41,15 31,15 77,20 5,15 36,45 46,20 -26,-85 21,-41 20,-10 10,-30 36,-16 10,-5 21,-5 15,-40 -16,-30 -10,-15 -32,-101 -20,-40 0,-15 10,-16 5,-15 10,-15 10,-25 5,-15 30,-51 -5,-10 -25,10 -16,-25 0,-25 21,-5 61,-16 51,-25 25,-56 31,-60 -6,-35 -21,-101 0,-20 21,-21 5,15 0,21 15,10 10,-41 15,-75 26,-46 35,-66 10,-45 0,-25 51,-86 97,-36 51,-46 46,-15 15,10 -10,30 113,-21 67,40 82,10 41,-25 20,-6 16,-25 10,-10 25,-10 21,-5 25,-11 21,-15 117,-81 36,-41 20,-55 0,-51 -1,-110 -51,0 0,-30 -6,-51 -5,-20 -46,-15 -36,-15 -36,26 -31,15 -46,36 -10,-10 -31,-15 -31,-46 -41,1 -15,-31 0,-15 -21,-25 -41,0 -46,-4 -11,-20 -30,0 -10,40 -16,41 -25,35 -5,20 -15,20 -26,61 -35,56 -15,35 -15,61 -15,60 -16,30 -35,46 -56,41 -26,35 -30,30 -5,41 -20,25 -16,56 1,65 -5,35 -41,71 -15,16 -20,15 -16,20 -20,40 -61,41 -15,25 -26,31 -10,35 -15,20 -31,0 -46,-30 -11,-30 31,-25 71,-121 31,-46 25,-40 20,-76 81,-132 46,-75 35,-56 61,-116 61,-112 41,-85 30,-56 15,-35 61,-122 35,-65 16,-31 10,-30 5,-25 10,-26 15,-20 20,-45 31,-91 30,-91 35,-96 20,-61 30,-106 31,-91 15,-65 5,-15 40,-132 30,-106 30,-111 15,-95 15,-46 5,-25 0,-10 15,-31 0,-35 5,-50 10,-61 4,-50 10,-41 0,-30 5,-20 0,-30 5,-21 0,-25 5,-15 0,-15 -10,-10 -6,-15 -15,-10 -10,-15 -11,-20 -5,-20 0,-31 -11,-15 -10,-30 -15,-20 -6,-5 -10,-30 -36,-30 -26,-25 -41,-30 -16,-15 -25,5 -15,15 -16,10 0,25 -10,16 -15,5 -5,-5 -11,-15 -5,-21 10,-10 5,-15 21,-35 5,-20 -6,-26 -10,-25 -10,-10 -16,-5 -20,0 -5,-5 -6,-10 -5,-15 0,-25 5,-20 15,-25 5,-26 0,-45 -5,-10 -16,-10 5,-15 16,0 10,-5 10,-6 0,-10 -5,-15 -15,-20 -6,-10 -15,-30 0,-25 -11,-25 -20,-20 0,-11 10,-5 5,-15 15,-10 0,-20 -5,-20 0,-10 10,-21 5,-15 0,-35 5,-10 -11,-25 16,-26 0,-15 -16,-20 -26,-35 -5,-20 5,-15 10,-10 10,-16 5,-20 -5,-20 -5,-15 5,-20 15,-10 10,-10 16,-1 15,0 16,5 20,10 21,5 20,-5 15,-10 26,-30 20,-41 20,-50 21,-61 25,-81 15,-55 35,-81 30,-101 51,-127 5,-20 10,-25 25,-66 25,-86 31,-80 15,-56 0,-30 -1,-20 -5,-31 5,-20 10,-5 16,-35 25,-71 20,-71 15,-50 0,-66 10,-25 5,-35 15,-26 10,-25 15,-50 15,-56 10,-45 0,-61 5,-25 5,-20 10,-20 10,-36 10,-30 10,-71 20,-50 5,-31 -21,-20 16,-15 10,-10 10,-30 10,-51 20,-81 5,-10 25,-96 10,-75 10,-56 25,-66 5,-65 5,-51 0,-10 10,-40 5,-30 10,-41 10,-35 10,-61 -1,-50 5,-35 5,-26 5,-45 15,-71 10,-96 9,-116 5,-70 -10,-66 -1,-65 5,-41 5,-55 0,-51 -1,-40 -5,-20 -15,-55 -11,-56 -5,-50 -16,-46 -16,-35 5,-50 -5,-36 -11,-30 -15,-30 -5,-35 -11,-30 0,-31 5,-35 5,-10 -10,-30 -11,-15 10,-11 11,-5 -11,-25 16,-20 -1,-20 5,-56 0,-91 20,10 11,15 0,46 -5,15 0,10 10,5 15,-30 5,-20 11,-11 15,-5 10,10 26,15 56,25 37,35 15,5 15,10 16,20 20,-5 10,-15 -5,-10 0,-15 -20,-20 -11,-15 -25,-15 -26,-15 -21,-10 -25,-25 -21,-5 -15,-10 -26,5 -15,-10 -21,-5 -10,-5 -26,-10 -26,-5 -30,-30 -42,-40 -26,-25 -5,-45 -10,-26 -11,-35 -15,-35 -1,-40 0,-16 5,-15 6,-15 -1,-15 -10,-15 0,-15 20,-10 11,-16 0,-15 -1,-25 -20,-50 -21,-25 0,-16 15,-30 5,-15 5,-25 -5,-25 -11,-21 -15,-15 -5,-10 -11,-25 -10,-15 -10,-30 -16,-20 -25,0 0,-25 5,-21 -1,-10 -5,-20 5,-20 -5,-50 -11,-31 -20,-75 -6,-30 -10,-21 -16,-35 -26,-60 -25,-40 -16,-20 -10,-51 -16,-40 -16,-56 -15,-40 10,-25 5,-15 0,-30 -6,-31 0,-35 -20,-35 10,-10 -6,-51 -5,-30 10,-15 -5,-76 -21,-101 -11,-55 -21,-60 -36,-66 -10,-15 -42,-60 -36,-56 -46,-30 -26,-15 -15,-5 -10,0 -5,-5 -16,-5 -10,-15 -16,-15 -20,-10 -26,-10 -15,-5 -16,6 -10,15 -20,15 -10,5 -21,-5 -26,-10 -36,-20 -30,-20 -11,-10 -10,-20 -5,-15 -21,-20 -15,-5 -5,-15 -11,-20 -46,-46 -36,-35 -26,-25 -21,-25 -15,-10 -15,-5 -16,5 -15,0 -10,-5 -6,-15 -15,-15 -21,-25 -10,-25 -10,-10 -6,-20 0,-15 10,-16 16,-10 15,-15 21,-10 15,-15 10,-16 15,-20 21,-30 25,-46 41,-81 30,-70 15,-41 20,-66 51,-136 40,-132 20,-90 15,-71 15,-76 20,-45 20,-91 20,-112 25,-95 0,-31 5,-45 5,-71 5,-40 5,-56 5,-45 -1,-36 5,-30 5,-35 5,-31 0,-40 5,-20 10,-15 5,10 6,25 -10,50 -5,41 -5,35 15,15 5,-10 16,0 10,5 10,20 5,15 11,-10 -1,-25 -10,-40 -10,-15 -6,-16 6,-15 10,0 10,-15 -5,-10 0,-10 -11,-30 -15,-31 -21,-20 -31,-5 -25,6 -11,-31 0,-15 5,-35 5,-40 10,-26 16,-50 10,-36 4,-50 0,-66 -5,-55 -1,-41 -5,-15 -10,-20 -5,-30 -6,-35 z" />
      <path
         id="1770"
         d="M -33340,-41909 l -41,31 -46,20 -10,-5 5,-15 20,-51 20,-35 26,-5 15,5 31,-5 15,-6 26,0 15,15 -5,21 -20,15 -21,10 z" />
      <path
         id="1827"
         d="M -13139,-11069 l -15,15 -41,26 -31,15 -46,-10 -47,-20 102,-101 46,-41 51,-45 6,65 -5,40 -10,31 z" />
      <path
         id="1828"
         d="M -15673,-11062 l 10,31 5,30 -15,15 -5,20 -56,0 -10,11 -21,5 -10,-10 -46,-5 -42,-25 0,-35 -11,-50 -41,-30 -77,25 0,-60 -26,-40 25,-15 88,39 123,40 67,35 z" />
      <path
         id="1831"
         d="M -14022,-10494 l 41,30 36,24 46,15 21,-10 20,5 36,-5 36,9 21,10 51,50 -40,31 -46,10 -67,-9 -77,-20 -98,1 -67,-45 -36,-40 -31,-96 -27,-60 -21,-70 0,-76 -21,-60 154,49 21,0 36,10 46,15 51,10 31,25 -10,25 -15,-15 -21,5 -25,25 -67,21 -10,25 -46,46 6,30 15,50 36,10 z" />
      <path
         id="1833"
         d="M -14315,-10583 l 15,45 11,30 26,51 -15,20 -36,-10 -42,-20 -51,-10 -77,-4 -82,-30 -47,-40 0,-25 92,-31 82,-25 20,-36 10,-80 15,-36 41,35 16,51 6,30 10,40 z" />
      <path
         id="1852"
         d="M -19579,-8595 l -25,-10 -26,-9 -5,-21 5,-25 10,-35 25,-30 31,-21 20,-25 36,-25 20,-1 21,20 21,41 20,25 21,60 -15,40 -25,31 -26,5 -15,0 -52,-10 -20,-10 z" />
      <path
         id="1855"
         d="M -18928,-8051 l -31,11 -20,-20 -21,-20 -16,-15 5,-46 -57,-150 25,-36 56,-15 73,135 -71,61 5,25 36,0 20,-20 26,-5 15,5 6,30 -26,25 1,35 z" />
      <path
         id="1859"
         d="M -18665,-7901 l 0,-26 293,69 107,-6 57,-5 20,10 46,19 37,30 5,36 57,29 30,-10 11,25 46,20 41,35 31,0 52,40 57,29 41,76 6,55 -41,50 -77,21 -92,-29 -62,-25 -77,-50 -72,-20 -47,-80 -31,-25 -77,11 -82,-20 -11,-35 26,-35 -6,-30 -82,-10 -10,51 -56,-15 -26,-30 -46,-5 -77,-20 z" />
      <path
         id="1860"
         d="M -26032,-7953 l -52,-24 -21,-36 0,-20 21,-5 20,5 47,30 0,15 26,5 0,25 -16,0 z" />
      <path
         id="1862"
         d="M -25437,-7891 l 16,10 10,20 0,15 -46,10 -15,-5 -6,-20 16,-15 z" />
      <path
         id="1864"
         d="M -25415,-7755 l 20,-1 36,10 1,10 -21,11 -26,5 -10,-15 z" />
      <path
         id="1865"
         d="M -24827,-7342 l 5,-10 0,-15 26,10 10,5 5,10 -15,5 -16,-10 -8,3 z" />
      <path
         id="1867"
         d="M -24584,-7051 l 21,40 -15,0 -16,-5 -10,0 -15,-25 15,-25 z" />
      <path
         id="1868"
         d="M -24527,-7057 l 36,5 5,20 -30,36 -11,-26 -5,-25 z" />
      <path
         id="2057"
         d="M 3041,34317 l 4,-56 31,-30 10,-41 30,-20 15,-61 0,-20 5,-30 5,-25 -10,-21 -21,-30 -67,-29 -10,-61 -57,-45 -21,-15 -25,-15 -21,-20 -26,-10 -36,-30 -36,-20 -46,-24 -72,25 -41,-14 -15,-36 61,5 26,-20 20,-16 -16,-30 -25,-20 25,-45 10,-56 102,15 41,9 46,10 41,-10 16,25 46,-16 46,0 15,10 46,0 57,19 51,10 41,-10 72,34 93,35 82,30 61,34 52,51 26,30 36,-21 30,25 118,-31 25,-25 62,14 36,-20 56,20 108,4 56,-31 46,20 16,35 51,5 10,20 31,0 26,15 67,34 51,-20 97,55 62,-1 72,65 10,40 36,20 47,20 67,106 46,4 41,0 36,10 41,30 72,-16 66,-21 31,41 92,-11 26,30 46,10 57,-21 40,-20 36,4 122,-152 -31,-60 10,-51 35,-20 36,-36 36,-40 102,-56 41,35 61,9 10,-35 47,5 40,-36 41,20 31,55 98,45 51,-1 93,30 41,55 36,25 -20,46 -26,15 -20,30 -36,21 -87,15 -35,51 16,45 -41,31 11,45 -11,26 -25,35 -10,15 -5,20 -31,1 -25,15 -77,6 -41,5 -51,31 -66,30 -46,21 -67,0 -51,16 -51,-15 -72,16 -92,-10 -56,11 -62,20 -61,-14 -113,1 -66,45 -56,31 -31,10 -20,26 -61,5 -26,26 -66,35 -56,16 -15,45 -52,-29 -66,56 -71,56 -52,-10 -46,-15 -56,0 -77,-29 -26,15 -15,-10 -36,21 -25,5 -16,20 -61,-5 -46,-24 -26,-5 -26,0 -30,20 -87,16 -46,-45 -41,0 -123,11 -72,46 -31,-65 -56,-40 -31,0 -26,-15 -87,-4 -30,41 -47,-20 -36,-45 -15,-15 -5,-10 -57,-45 -118,-20 0,-35 5,-35 -21,-36 -21,-30 0,-10 -31,-60 -16,-60 z" />
      <path
         id="2058"
         d="M -1359,33538 l 16,70 31,25 0,40 16,41 -46,50 36,50 72,25 57,0 86,-21 36,5 37,50 51,25 77,55 11,45 10,40 21,35 98,30 -16,20 -46,5 -56,6 -66,21 -88,-10 -66,-9 -82,5 -67,6 -61,10 -25,41 -72,-5 -46,-25 -52,-34 -62,-45 -51,-15 -72,-25 -92,-39 -46,-10 -26,0 -25,20 -41,41 -62,5 -51,-40 -46,-14 -46,5 -72,16 36,-41 -6,-45 41,-11 31,0 36,-10 91,-112 76,-31 46,-50 21,30 46,10 46,24 62,-5 46,-16 25,-20 31,-20 35,-21 26,-20 30,-31 36,-35 20,-41 -6,-65 16,-10 z" />
      <path
         id="2060"
         d="M -1097,33677 l 20,-26 57,0 21,35 -5,30 -21,6 -41,5 -25,-5 -21,-25 z" />
      <path
         id="2062"
         d="M 442,35294 l -21,-30 -21,-25 -77,-40 5,-40 -26,-56 -16,-55 -26,-40 -10,-45 -26,-30 -36,-20 -26,-5 -10,-35 -26,-56 -31,-40 -11,-40 -16,-50 -46,-45 -46,-40 -31,-35 -11,-61 -26,-25 -31,-20 -51,-10 -31,-14 -16,-36 -25,-30 -52,-4 -25,-30 35,-6 31,-10 25,-25 15,-31 57,5 41,-16 77,0 112,44 98,15 117,-31 52,14 25,-5 26,-15 20,0 52,4 132,-117 35,-55 56,-21 67,-5 72,34 61,0 47,30 71,4 46,-5 67,9 82,-15 51,-11 66,-30 21,-36 30,-15 31,-16 40,-50 31,-21 36,-5 26,15 25,-5 31,9 5,21 -5,40 1,55 -41,71 -15,56 11,40 16,50 5,76 73,70 128,75 98,29 20,20 62,25 107,-31 97,-16 41,5 1,25 -10,51 5,65 11,66 11,80 26,15 26,45 0,66 26,45 -31,5 -56,-4 -67,-5 -102,6 -97,16 -20,25 -98,26 -40,51 -56,46 -92,36 -25,40 -51,21 -15,40 -77,16 -82,6 -61,15 -56,36 -108,-15 -61,16 -51,21 -61,61 5,40 -15,20 -46,11 -26,-5 -25,-5 -26,-25 -31,-10 -41,-30 -36,-10 -26,-30 -41,-20 -36,-25 -31,-25 -21,-20 -36,11 -15,-20 -10,-20 -21,-15 -26,5 z" />
      <path
         id="2063"
         d="M 7772,34186 l 25,-20 56,-16 46,-5 36,-6 11,36 -16,15 -20,5 -31,5 -92,6 z" />
      <path
         id="2064"
         d="M 7219,34210 l -47,-15 0,-15 77,-15 41,-11 56,5 52,30 10,20 47,40 15,5 -20,10 -103,11 -51,-20 -41,-30 z" />
      <path
         id="2065"
         d="M 7577,34243 l 36,0 51,-6 46,-30 41,9 0,10 -20,16 -15,20 -21,15 -76,31 -62,-10 -46,-39 51,-26 z" />
      <path
         id="2077"
         d="M 18201,37020 l 10,25 -51,31 -41,40 -4,51 -37,-45 -25,10 47,161 -26,5 -68,-196 5,-15 5,-25 31,-41 20,-25 36,-31 35,-66 26,-35 76,-26 220,-57 5,15 42,80 10,56 -40,20 -37,-50 -45,16 -118,46 31,70 11,15 87,10 107,-31 0,20 -92,36 -107,-9 -21,-21 -42,-85 -30,15 z" />
      <path
         id="2078"
         d="M 10859,40039 l 77,5 45,-31 10,-30 26,-10 15,0 0,30 -9,35 20,50 -25,66 -15,41 -15,40 -31,11 -25,-20 -21,-36 -11,-65 -31,-55 z" />
      <path
         id="2079"
         d="M 16156,41500 l -47,-30 -41,-55 -6,-76 31,-31 35,-50 -15,-66 45,-71 26,-5 25,-15 -10,-30 -31,-56 -42,-85 -21,-106 -16,-116 -51,-55 -87,0 -57,-55 66,-76 -46,1 -61,45 -67,31 -41,-15 -71,-14 -62,-20 -66,-10 -139,21 -15,-4 -67,-66 -56,-29 15,-71 -72,-25 -124,-130 -88,-116 -21,-60 52,-10 102,19 46,10 67,-16 76,15 62,4 36,-5 117,-6 52,-15 56,35 26,45 15,35 67,10 -15,35 118,55 41,30 47,70 26,65 46,5 56,-21 56,-35 51,-6 31,56 57,4 31,35 102,55 46,15 88,55 87,-11 71,5 185,79 103,20 31,40 72,55 82,-1 35,0 -10,45 -30,96 160,221 206,170 68,146 118,80 31,106 62,90 -14,137 -62,5 -10,66 -51,10 -56,31 -82,-25 -139,-74 -41,-66 -67,-24 -51,-5 -153,-4 -82,-40 -128,26 -87,1 -107,31 -88,-25 -107,1 -77,6 -51,-35 -47,-45 -46,-56 -46,-45 -16,-65 z" />
      <path
         id="2081"
         d="M 6492,42927 l -76,-19 -93,-20 -97,-29 -36,-25 -26,-30 -72,-55 -52,-101 -41,-35 -26,-50 10,-61 -47,-75 -26,-61 5,-10 62,20 31,30 77,40 61,-31 30,-61 51,-10 72,-6 46,-51 41,10 51,20 31,30 46,20 62,45 61,35 42,50 87,-1 41,35 61,0 26,15 62,15 56,24 46,45 42,46 41,35 47,85 36,35 72,40 61,25 -25,35 -26,6 -25,5 0,25 -20,30 -26,36 -71,-10 -57,21 -40,15 -57,6 -97,11 -82,-40 -87,-25 -41,16 -56,-15 -108,-24 z" />
      <path
         id="2088"
         d="M 14995,44890 l 31,-5 15,15 10,5 11,15 0,20 -26,20 -15,1 -21,-10 -20,-31 5,-15 z" />
      <path
         id="2089"
         d="M 16005,46812 l 4,-81 -56,-65 -82,-50 -68,-126 -52,-96 -61,11 -67,-131 -17,-166 -36,-142 -57,-90 -52,-65 -61,-55 -42,-66 -26,-75 -6,-101 -41,-66 -31,-121 -37,-65 -36,-30 -41,-35 -92,1 0,-41 5,-71 -6,-75 56,-21 82,-5 21,55 71,-16 56,-46 47,51 25,15 26,20 31,30 -36,45 42,71 26,90 41,0 56,45 16,66 52,146 77,50 47,90 92,75 94,156 82,126 77,75 93,95 108,50 72,60 46,50 42,56 66,60 98,75 165,150 118,95 134,115 128,131 124,75 98,145 77,50 -15,41 -52,-15 -31,-40 -61,-15 -72,21 -36,-45 -66,-25 -82,21 -36,40 -61,31 16,81 -61,10 -51,11 -122,112 -47,-136 -47,-40 -51,-10 -36,-45 -41,15 -31,-35 -82,-85 -62,-30 -41,-76 -51,-45 -123,-4 -6,-60 -66,-20 -32,-91 z" />
      <path
         id="2096"
         d="M 28066,47546 l 10,-51 21,-35 10,-36 10,-15 20,-10 16,5 5,20 -15,20 -11,16 -5,15 0,25 6,15 10,10 5,10 -15,5 -16,-5 -10,-5 0,16 10,10 11,15 20,10 16,10 15,10 0,40 -10,5 -15,10 -21,-5 -5,-15 0,-10 -15,-10 -11,-10 -20,-5 0,26 -15,5 -26,-5 -15,-5 -11,-15 6,-10 10,0 15,-16 5,-20 z" />
    </g>
  </clipPath>
  <use
     height="105360"
     width="91644"
     y="0"
     x="0"
     style="fill:#ffffff;stroke:#000000;stroke-width:200;stroke-linejoin:round;fill-opacity:1;stroke-miterlimit:4;stroke-dasharray:none"
     id="use3536"
     xlink:href="#state_outline" />
</svg>
